<?xml version="1.0" encoding="utf-8"?>
<!-- Generator: Adobe Illustrator 23.0.1, SVG Export Plug-In . SVG Version: 6.00 Build 0)  -->
<svg version="1.1" id="レイヤー_1" xmlns="http://www.w3.org/2000/svg" xmlns:xlink="http://www.w3.org/1999/xlink" x="0px"
	 y="0px" viewBox="0 0 480 60" style="enable-background:new 0 0 480 60;" xml:space="preserve">
<style type="text/css">
	.st0{fill:#FFFFFF;}
</style>
<title>1</title>
<path class="st0" d="M221.2,31.4l1.1-2.9H212l1.7-4.8H224l1-2.7l-3.1,0.1l-4.8,0.1h-3l1.8-5c2.7,0.1,3.9,0.1,5.6,0.1
	c7.1,0.1,14.2-0.2,21.2-1.2l-1.8,5c-4,0.4-6.1,0.5-10,0.7l-1.1,3h10.5l-1.7,4.8h-10.4l-1.1,2.9h11.3l-1.8,4.9h-11.3L224,40
	c-1.3,3.5-2.7,4.3-7.1,4.4h-5.6l1.8-5h5.3l1.1-3.1h-11.8l1.8-4.9L221.2,31.4z"/>
<path class="st0" d="M239.9,37.2l6-16.5h-1.8l1.7-4.6h15.9l-0.9,2.5h13.1c-3.6,8.2-5.9,12.1-10,17c0.7,1.3,1.7,2.4,2.9,3.2l-2.2,6.1
	c-2.2-1.1-3.9-2.9-5.1-5.1c-2.6,2.3-5.7,3.9-9,4.8l2-5.6c2.1-0.8,4-1.9,5.7-3.4c-0.3-3.7-0.1-6.2,1.1-12.1h-1l1.2-3.2h-0.9l-8.7,24
	H245l1.2-3.2c-3.5,0.5-5.4,0.7-10.1,1.2l1.8-4.9L239.9,37.2z M252.9,22.8l0.8-2.1h-2.9l-0.8,2.1H252.9z M250.5,29.5l0.9-2.6h-2.9
	l-0.9,2.6H250.5z M248,36.3l1-2.7h-3l-1.1,3L248,36.3z M264,23.5c-0.5,2-0.8,4-1,6.1c1.4-1.9,2.6-3.9,3.6-6L264,23.5z"/>
<path class="st0" d="M270.4,38.8h7c4.9,0,6.9-0.5,9.4-2.5c1.9-1.6,3.3-3.7,4-6c0.6-1.7,1.1-3.4,1.4-5.1c0.1-1.1-0.4-1.8-1.3-1.8
	c-0.8,0.1-1.5,0.5-2,1c-0.8,0.7-1.6,1.4-6.1,6c-5.1,5.1-5.6,5.4-9.4,5.5h-1.8l7.1-19.4h5.6L280.5,27c8.6-8.5,10-9.5,13.2-9.5
	c2.8,0,4.4,1.2,4.6,3.6c0.2,2-0.5,5.8-1.7,9c-1.9,5.1-4.4,8.6-8.1,11.1c-2.1,1.3-4.4,2.3-6.8,2.8c-2,0.4-4,0.6-6,0.5h-7.3
	L270.4,38.8z"/>
<path class="st0" d="M302.3,33c-1,2.9-2.1,5.8-3.5,8.5h-3.5c1.4-2.7,2.6-5.6,3.5-8.5H302.3z M312.6,15.2l-4.7,5.3l0.3,1.1l3.8-4.3
	h4.9l-6.8,7.3h3.3l-0.2,3.5l-0.6,1.7c-0.3,1.2-1.4,2.1-2.7,2h-2L303.4,44h-4.4l4.5-12.2H299l1.5-4.2h2l1.2-1.1l-0.9-3.5
	c-0.2-0.6-0.2-1.2,0-1.8c0.3-0.6,0.7-1.2,1.1-1.7l3.6-4.3L312.6,15.2z M309.2,27.5v-2l-1.9,2H309.2z M308.5,33.2h3.4l-2.8,7.6h-3.4
	L308.5,33.2z M328.7,15.2c0.3,2.7,1.7,5.1,3.8,6.8l-2.1,5.8c-0.9-0.4-1.8-1-2.4-1.8l-0.9,2.5h-11.7l0.9-2.4
	c-1.3,0.7-1.5,0.8-2.8,1.4l2-5.6c3.2-1.7,6.1-4,8.4-6.8H328.7z M313.7,30.5h14l-3.5,9.5c-0.9,2.6-2.2,3.6-4.7,3.7h-10.6L313.7,30.5z
	 M326.7,24.3c-0.8-1.5-1.5-3.1-2-4.7c-1.8,1.7-3.7,3.3-5.7,4.7H326.7z M319.9,39.3l1.6-4.3h-4.7l-1.5,4.2L319.9,39.3z"/>
<path class="st0" d="M331.6,30l1.8-4.9h4.9l3.6-9.9h5l-3.6,10h3.9l-1.8,4.9h-3.9l-0.4,1.1l3,2.4l-2.1,5.8l-2.9-3l-2.8,7.7h-5
	l2.7-7.3c-2.2,2.3-4.7,4.3-7.5,5.8l2.5-7c2.3-1.4,4.3-3.4,5.9-5.6L331.6,30z M340.3,16.4l-1.6,7.2H335l1.4-7.2H340.3z M351.5,16.4
	l-4.2,7.2h-3.4l3.9-7.2H351.5z M359.6,15h5.1l-6.4,17.7l2.4-0.1l-1.8,4.8l-2.4,0.2l-2.4,6.7h-5.1l2.3-6.4l-8.2,0.4l1.8-4.8L353,33
	L359.6,15z M352.1,15.9c1.7,0.5,3.4,1.2,5.1,2l-2,5.6c-1.6-0.9-3.3-1.7-5-2.3L352.1,15.9z M352.3,31.2c-1.8-0.9-2.3-1.1-5-2.2
	l1.9-5.3c1.7,0.6,3.4,1.3,5,2.1L352.3,31.2z"/>
<path class="st0" d="M379.4,20.4l-1.3,3.6h-12.3l1.3-3.6L379.4,20.4z M373.9,34.1l-2.2,6c-1.1,3.2-2.2,4-5.5,4h-6.8l3.6-9.9
	L373.9,34.1z M369.9,15.7h10.6l-1.4,3.7h-10.6L369.9,15.7z M366.6,25H377l-1.3,3.6h-10.4L366.6,25z M375.3,29.7l-1.3,3.6h-10.5
	l1.3-3.6L375.3,29.7z M367.6,39.7l0.7-2h-2.3l-0.7,2H367.6z M384.1,23.8l3.1-8.5h5.5l-3.1,8.5h5.8l-1.8,4.8h-5.8l-5.8,15.9h-5.5
	l5.8-15.9h-5.6l1.8-4.8L384.1,23.8z"/>
<path class="st0" d="M392.6,35.8h7.6l0.5-1h-5.1l4.9-13.4h3v-1.5c-1.9,0.9-3.8,1.6-5.9,2.1l1.4-3.9c1.8-0.5,3.6-1.4,5-2.6h5
	c-0.4,0.5-0.8,0.9-1.2,1.3h6.3l-1.2,3.2h-4.3l0.3,1.4h4.1l1.3-3.4c1.8-0.3,3.4-1.1,4.6-2.5h5.2c-0.5,0.5-1,0.9-1.5,1.3h6.3l-1.2,3.1
	h-3.8l0.5,1.4l-3.6,10c-0.9,2.5-2.2,3.3-5,3.3l-0.4,1.1h6.5l-1.4,3.7H414l-1.8,4.9h-5.3l1.8-4.9h-4.9c-2.9,3.4-7.8,5.3-13.7,5.5
	l1.6-4.3c2.9-0.1,4.2-0.3,5.7-1.2h-6.1L392.6,35.8z M417.8,25.1l0.4-1.1h-13.4l-0.4,1.1H417.8z M416.6,28.3l0.4-1.2h-13.4l-0.4,1.2
	H416.6z M415.4,31.5l0.5-1.2h-13.4l-0.4,1.2H415.4z M410,35.8l0.4-1h-4.1l-0.5,1H410z M419,21.4l-0.2-1.8c-1.2,0.7-2.4,1.3-3.7,1.8
	H419z"/>
<path class="st0" d="M428.9,21.1h2.7l2-5.6h4.7l-2,5.6h2l-1.8,4.8h-2l-0.6,1.5c0.5,0.4,0.9,0.9,1.3,1.5l-2.4,6.5
	c-0.2-0.9-0.5-1.8-0.9-2.6l-4.1,11.4h-4.7l2.8-7.7c-1.1,1.4-2.5,2.6-4,3.5l2.7-7.4c2.1-1.9,3.9-4.2,5.1-6.7h-2.7L428.9,21.1z
	 M446,15.5l-3.8,4l0.2,0.4l2.4-2.6h2.9l0.6-1.8h4.5l-1.2,3.4l3-3.4h3.5l-3.5,3.9l0.2,0.5l2.1-2.1h3.4l-5.3,5.4h2.6l-1.9,5.2h-1.9
	l0.2,1.2h1.2l-1.4,3.8h-6.6c-0.1,0.9,0,1.8,0.1,2.6c0.6-0.6,1.1-1.3,1.6-1.9h4.7c-1.1,1.9-2.6,3.6-4.3,5c0.6,0.5,1.3,0.9,2.1,1.2
	l-1.8,4.8c-2.4-0.5-4.3-1.5-5-2.8c-2.5,1.3-5.2,2.1-8,2.4l1.6-4.4c1.6-0.2,3.2-0.6,4.7-1.3c-0.3-1.9-0.3-3.8,0.1-5.6h-2.6l-0.5,1.2
	c0.7,0.2,1.5,0.4,2.1,0.7l-1.5,4.2c-0.8-0.5-1.7-0.9-2.6-1.2c-1.7,3.1-4.5,5.3-7.8,6.3l2-5.5c1.9-1.2,2.4-1.9,3.8-5.7h-1.7l1.4-3.8
	h8.1c0.5-2.2,1.8-6.4,3.2-10.7l-6,6.3h1.1l0.6-1.7h2.4l-1.8,4.9h-7.1l1.3-3.6l1.9-1.8l-0.8-1.7c-0.2-0.5-0.3-0.7-0.1-1
	c0.2-0.4,0.4-0.7,0.6-1l3.1-3.7L446,15.5z M450,29.5v-1.2h-1.3l1.3-3.6l1.5-1.6l-0.9-1.7c-1.2,3.3-2,6.1-2.6,8.1H450z M454,25.1
	l0.5-1.4l-1.5,1.4H454z"/>
<path class="st0" d="M91.6,15.2l-1.6,1.4h6.4l-1.2,3.2h-3.9l0.2,1.6h-5.5l-0.1-1.6c-1.4,0.9-2.9,1.7-4.4,2.4h12.8L91,32h-8.2
	l-4.5,12.2h-5.2l7.9-21.7l-0.9,0.2l1.7-4.5c1.8-0.6,3.4-1.6,4.7-2.9H91.6z M88.5,26l0.3-0.8h-3.5L85,26H88.5z M87.3,29.3l0.3-0.8
	h-3.5l-0.3,0.8H87.3z M97.9,32.8l-2.6,7.1h2.4l2.9-8h-8.2l3.6-9.7h13.2l-6.6,18.1c-0.7,2.3-2.7,3.9-5.1,4h-4.7l0.8-2.2
	c-0.6,0.4-1.3,0.6-1.9,0.5H80.6l3.6-9.9L97.9,32.8z M91.7,36.3l0.3-0.9h-4.2l-0.3,0.9H91.7z M90.5,39.5l0.3-0.9h-4.2l-0.3,0.9H90.5z
	 M107,15.2l-1.5,1.5h6.4l-1.2,3.2h-4l0.5,1.5h-5.9l-0.1-1.6c-1.9,1-3.9,1.8-6,2.4l1.5-4.1c1.9-0.5,3.5-1.5,4.9-2.9L107,15.2z
	 M102.8,26l0.3-0.8h-3.8L99,26H102.8z M101.6,29.3l0.3-0.8h-3.8l-0.3,0.8H101.6z"/>
<path class="st0" d="M107.5,35.8h12l0.6-1.5h-10.1l5.5-15.3h1.9l-1-3.6h5.9l0.4,3.6h2.4l-0.7-3.6h5.5l0.9,3.6h2.3l3.6-3.6h6.5
	L139,19h2.4l-4,11.1c-1.1,3-2.6,4.2-5.5,4.2h-6.4l-0.6,1.5h12l-1.7,4.6h-12l-1.6,4.4h-5.5l1.6-4.4h-12L107.5,35.8z M123.5,24.6
	l0.7-1.8h-5l-0.6,1.8H123.5z M121.5,30l0.7-1.9h-5l-0.6,1.9L121.5,30z M133.9,24.6l0.6-1.8h-4.9l-0.6,1.8L133.9,24.6z M132,30
	l0.7-1.9h-4.9l-0.7,1.9H132z"/>
<path class="st0" d="M155.7,15.5l-9.4,21.6h-4.9l6.5-21.6L155.7,15.5z M146.4,38.6l-2.2,6H138l2.2-6H146.4z"/>
<path class="st0" d="M200.6,13.1l-47.7,17.4l6,16.4l47.7-17.4L200.6,13.1z M169,27.3l0.7,2l-1.2,0.5l-0.7-2L169,27.3z M167.4,27.9
	l0.7,2l-1.2,0.5l-0.7-2L167.4,27.9z M159.7,33.7l4.5-1.7l-1.2-1.8l2.2-0.8l1.2,1.7l3.4-1.3l0.7,2l-2.9,1.1l1.8,2.8l-2.4,0.9
	l-1.8-2.8l-4.9,1.9L159.7,33.7z M168.9,40.4c-1.1,0.4-2.3,0.8-3.5,0.9c-0.7,0.1-1.4,0-2.1-0.3c-0.6-0.3-1.1-0.9-1.3-1.5
	c-0.2-0.8-0.2-1.6,0-2.4l2.3-0.8c-0.2,0.6-0.2,1.4,0,2c0.1,0.4,0.4,0.7,0.8,0.8c0.8,0,1.7-0.2,2.4-0.5c1.4-0.5,2.8-1.1,4.1-1.9
	l0.8,2.2C171.3,39.4,170.1,39.9,168.9,40.4z M180.4,35.3c-0.5,0.8-1.5,1.4-3.4,2.1l-2.1,0.8l-0.5-1.5l2.1-0.8
	c0.9-0.3,1.7-0.8,2.4-1.4c0.3-0.5,0.4-1.2,0.2-1.8c-0.2-0.5-0.5-0.9-1-1.1c-0.2-0.1-0.5-0.1-0.8-0.1c0,0-1,0.3-1.1,0.4l-3.9,1.5
	l-0.5-1.5l3.9-1.5l0.2-0.1c1.7-0.6,2.4-0.6,3.3-0.2c0.8,0.4,1.4,1.1,1.7,2C181.2,33.1,181,34.3,180.4,35.3z M187,33.8l-4.5-2.8
	l-0.8-0.4c-0.4-0.2-0.6-0.5-0.7-0.9c-0.1-0.4-0.1-0.8,0-1.1l2-5.8l2.8-1l-2.1,6c-0.1,0.3-0.2,0.7-0.1,1c0.1,0.3,0.2,0.3,0.8,0.7
	l5.7,3.3L187,33.8z M198.6,28.2c-0.5,0.8-1.1,1.5-1.9,2c-0.7,0.4-1.5,0.8-2.2,1l-3,1.1l-0.8-2.2l2.8-1c2-0.7,2.6-1.2,3-2.3
	c0.3-0.9,0.2-1.8-0.1-2.7c-0.3-0.7-0.6-1.4-0.9-2c-0.2-0.4-0.6-0.6-1.1-0.4c-0.2,0.1-0.4,0.3-0.5,0.7c-0.3,1-0.5,2-0.7,3
	c-0.5,2.5-0.7,2.7-2.2,3.3l-0.7,0.3l-2.8-7.8l2.3-0.8l1.5,4.2c1-4.2,1.2-4.8,2.5-5.2c1-0.4,2.1-0.2,2.9,0.6c0.8,1,1.5,2.1,1.9,3.4
	C199.4,25.2,199.4,26.8,198.6,28.2z"/>
<g>
	<polygon class="st0" points="31.5,20.7 32.2,20.7 32.5,19.5 31.2,19.5 	"/>
	<polygon class="st0" points="34.2,39.2 36,39.2 36,37 34.2,37 	"/>
	<path class="st0" d="M64.3,25.6c-2-10.4-11.1-18.2-22.1-18.2C29.8,7.5,19.7,17.5,19.7,30c0,12.4,10.1,22.5,22.5,22.5
		c11,0,20.1-7.8,22.1-18.2l7.5-4.3L64.3,25.6z M32.1,41.2v-6.3l6.1,0v4.2c0.1,1.7-0.4,2.1-2.2,2.1H32.1z M41.3,40.8
		c0,2-0.5,2.5-2.9,2.5h-1.5v-2.1h2v-7.1h-7.5v9.2h-2.3V32h4.4l0.4-1.3h2.7L36.2,32h5.1V40.8z M41.8,22.6h-1v6.8h-2.3v-6.8h-0.8
		c0,2.9-0.1,3.6-0.3,4.5c-0.3,1.2-1.4,2.2-2.7,2.4v-1.2c-0.9-0.6-1-0.6-1.7-1.2v2.3h-2.1v-1.8c-0.5,0.7-1.2,1.3-2,1.7v-2.6
		c1-0.6,1.3-0.9,1.7-1.7h-1.8V23h2.1v-0.6h-2v-1.8h0.9l-0.3-1.1h-0.6l0-1.9h2.1v-1H33v1h2v1.9h-0.6l-0.3,1.1H35v1.8h-2V23h2v1.9h-2
		V25c0.6,0.4,1.3,0.7,1.9,1v0.9c0.5-0.5,0.5-0.8,0.6-4.1v-5.5c2-0.1,4-0.3,5.9-0.8v2.4c-1.2,0.1-1.3,0.2-3.7,0.3v1.4h4.1V22.6z
		 M43.2,17.5H48v-0.8h2.5v0.8h4.8v1.8H43.2V17.5z M46.1,22.3c-0.6,1.3-1.4,1.9-3.2,2.4v-2.2c1.3-0.3,2.2-1.4,2.2-2.7h2
		c0,1.2,0.7,2.2,1.9,2.6v2.2h0.5v-2.2c1.1-0.4,1.8-1.4,1.9-2.6h1.9c0.3,1.7,0.9,2.4,2.2,2.7v2.2c-1.4-0.2-2.6-1.1-3.1-2.3
		c-0.4,1-1.3,1.8-2.4,2.2h0.6V25h5v2h-5v2.5h-2.5V27H43v-2h5.1v-0.5h0.4C47.4,24.1,46.6,23.4,46.1,22.3z M45.9,41.8
		c0,0.4,0.1,0.8,0.1,1.2h-2.4c-0.1-1.3-0.2-2.6-0.2-3.9c0-2.7,0.2-5.5,0.6-8.2h2.4c-0.4,2.3-0.7,4.7-0.7,7
		C45.7,38.2,45.8,41.1,45.9,41.8z M55.7,36h-2.8c0,1.3,0,1.5,0,1.8c0,2-0.3,2.9-1.2,3.9c-1.1,1.1-2.6,1.7-4.2,1.6h-0.6v-2.3
		c0.7,0,1.3-0.1,1.9-0.2c0.7-0.2,1.2-0.8,1.4-1.5c0.1-0.5,0.2-1.1,0.2-1.6c0-0.2,0-0.2,0-1.5l-3.2,0.1v-2.3h3.2l-0.1-2.9h2.7v2.8
		h2.8V36z"/>
</g>
</svg>
