<svg xmlns="http://www.w3.org/2000/svg" viewBox="0 0 480 60"><style>.st0{fill:#fff}</style><title>1</title><path class="st0" d="M221.2 31.4l1.1-2.9H212l1.7-4.8H224l1-2.7-3.1.1-4.8.1h-3l1.8-5c2.7.1 3.9.1 5.6.1 7.1.1 14.2-.2 21.2-1.2l-1.8 5c-4 .4-6.1.5-10 .7l-1.1 3h10.5l-1.7 4.8h-10.4l-1.1 2.9h11.3l-1.8 4.9h-11.3L224 40c-1.3 3.5-2.7 4.3-7.1 4.4h-5.6l1.8-5h5.3l1.1-3.1h-11.8l1.8-4.9h11.7zM239.9 37.2l6-16.5h-1.8l1.7-4.6h15.9l-.9 2.5h13.1c-3.6 8.2-5.9 12.1-10 17 .7 1.3 1.7 2.4 2.9 3.2l-2.2 6.1c-2.2-1.1-3.9-2.9-5.1-5.1-2.6 2.3-5.7 3.9-9 4.8l2-5.6c2.1-.8 4-1.9 5.7-3.4-.3-3.7-.1-6.2 1.1-12.1h-1l1.2-3.2h-.9l-8.7 24H245l1.2-3.2c-3.5.5-5.4.7-10.1 1.2l1.8-4.9 2-.2zm13-14.4l.8-2.1h-2.9l-.8 2.1h2.9zm-2.4 6.7l.9-2.6h-2.9l-.9 2.6h2.9zm-2.5 6.8l1-2.7h-3l-1.1 3 3.1-.3zm16-12.8c-.5 2-.8 4-1 6.1 1.4-1.9 2.6-3.9 3.6-6l-2.6-.1zM270.4 38.8h7c4.9 0 6.9-.5 9.4-2.5 1.9-1.6 3.3-3.7 4-6 .6-1.7 1.1-3.4 1.4-5.1.1-1.1-.4-1.8-1.3-1.8-.8.1-1.5.5-2 1-.8.7-1.6 1.4-6.1 6-5.1 5.1-5.6 5.4-9.4 5.5h-1.8l7.1-19.4h5.6L280.5 27c8.6-8.5 10-9.5 13.2-9.5 2.8 0 4.4 1.2 4.6 3.6.2 2-.5 5.8-1.7 9-1.9 5.1-4.4 8.6-8.1 11.1-2.1 1.3-4.4 2.3-6.8 2.8-2 .4-4 .6-6 .5h-7.3l2-5.7zM302.3 33c-1 2.9-2.1 5.8-3.5 8.5h-3.5c1.4-2.7 2.6-5.6 3.5-8.5h3.5zm10.3-17.8l-4.7 5.3.3 1.1 3.8-4.3h4.9l-6.8 7.3h3.3l-.2 3.5-.6 1.7a2.6 2.6 0 0 1-2.7 2h-2L303.4 44H299l4.5-12.2H299l1.5-4.2h2l1.2-1.1-.9-3.5c-.2-.6-.2-1.2 0-1.8.3-.6.7-1.2 1.1-1.7l3.6-4.3h5.1zm-3.4 12.3v-2l-1.9 2h1.9zm-.7 5.7h3.4l-2.8 7.6h-3.4l2.8-7.6zm20.2-18c.3 2.7 1.7 5.1 3.8 6.8l-2.1 5.8c-.9-.4-1.8-1-2.4-1.8l-.9 2.5h-11.7l.9-2.4c-1.3.7-1.5.8-2.8 1.4l2-5.6c3.2-1.7 6.1-4 8.4-6.8h4.8zm-15 15.3h14l-3.5 9.5c-.9 2.6-2.2 3.6-4.7 3.7h-10.6l4.8-13.2zm13-6.2c-.8-1.5-1.5-3.1-2-4.7-1.8 1.7-3.7 3.3-5.7 4.7h7.7zm-6.8 15l1.6-4.3h-4.7l-1.5 4.2 4.6.1zM331.6 30l1.8-4.9h4.9l3.6-9.9h5l-3.6 10h3.9l-1.8 4.9h-3.9l-.4 1.1 3 2.4-2.1 5.8-2.9-3-2.8 7.7h-5l2.7-7.3c-2.2 2.3-4.7 4.3-7.5 5.8l2.5-7c2.3-1.4 4.3-3.4 5.9-5.6h-3.3zm8.7-13.6l-1.6 7.2H335l1.4-7.2h3.9zm11.2 0l-4.2 7.2h-3.4l3.9-7.2h3.7zm8.1-1.4h5.1l-6.4 17.7 2.4-.1-1.8 4.8-2.4.2-2.4 6.7H349l2.3-6.4-8.2.4 1.8-4.8 8.1-.5 6.6-18zm-7.5.9c1.7.5 3.4 1.2 5.1 2l-2 5.6c-1.6-.9-3.3-1.7-5-2.3l1.9-5.3zm.2 15.3c-1.8-.9-2.3-1.1-5-2.2l1.9-5.3c1.7.6 3.4 1.3 5 2.1l-1.9 5.4zM379.4 20.4l-1.3 3.6h-12.3l1.3-3.6h12.3zm-5.5 13.7l-2.2 6c-1.1 3.2-2.2 4-5.5 4h-6.8l3.6-9.9 10.9-.1zm-4-18.4h10.6l-1.4 3.7h-10.6l1.4-3.7zm-3.3 9.3H377l-1.3 3.6h-10.4l1.3-3.6zm8.7 4.7l-1.3 3.6h-10.5l1.3-3.6h10.5zm-7.7 10l.7-2H366l-.7 2h2.3zm16.5-15.9l3.1-8.5h5.5l-3.1 8.5h5.8l-1.8 4.8h-5.8L382 44.5h-5.5l5.8-15.9h-5.6l1.8-4.8h5.6zM392.6 35.8h7.6l.5-1h-5.1l4.9-13.4h3v-1.5c-1.9.9-3.8 1.6-5.9 2.1l1.4-3.9c1.8-.5 3.6-1.4 5-2.6h5c-.4.5-.8.9-1.2 1.3h6.3l-1.2 3.2h-4.3l.3 1.4h4.1l1.3-3.4c1.8-.3 3.4-1.1 4.6-2.5h5.2c-.5.5-1 .9-1.5 1.3h6.3l-1.2 3.1h-3.8l.5 1.4-3.6 10c-.9 2.5-2.2 3.3-5 3.3l-.4 1.1h6.5l-1.4 3.7H414l-1.8 4.9h-5.3l1.8-4.9h-4.9c-2.9 3.4-7.8 5.3-13.7 5.5l1.6-4.3c2.9-.1 4.2-.3 5.7-1.2h-6.1l1.3-3.6zm25.2-10.7l.4-1.1h-13.4l-.4 1.1h13.4zm-1.2 3.2l.4-1.2h-13.4l-.4 1.2h13.4zm-1.2 3.2l.5-1.2h-13.4l-.4 1.2h13.3zm-5.4 4.3l.4-1h-4.1l-.5 1h4.2zm9-14.4l-.2-1.8c-1.2.7-2.4 1.3-3.7 1.8h3.9zM428.9 21.1h2.7l2-5.6h4.7l-2 5.6h2l-1.8 4.8h-2l-.6 1.5c.5.4.9.9 1.3 1.5l-2.4 6.5c-.2-.9-.5-1.8-.9-2.6l-4.1 11.4h-4.7l2.8-7.7c-1.1 1.4-2.5 2.6-4 3.5l2.7-7.4c2.1-1.9 3.9-4.2 5.1-6.7H427l1.9-4.8zm17.1-5.6l-3.8 4 .2.4 2.4-2.6h2.9l.6-1.8h4.5l-1.2 3.4 3-3.4h3.5l-3.5 3.9.2.5 2.1-2.1h3.4l-5.3 5.4h2.6l-1.9 5.2h-1.9l.2 1.2h1.2l-1.4 3.8h-6.6c-.1.9 0 1.8.1 2.6.6-.6 1.1-1.3 1.6-1.9h4.7c-1.1 1.9-2.6 3.6-4.3 5 .6.5 1.3.9 2.1 1.2l-1.8 4.8c-2.4-.5-4.3-1.5-5-2.8-2.5 1.3-5.2 2.1-8 2.4l1.6-4.4c1.6-.2 3.2-.6 4.7-1.3-.3-1.9-.3-3.8.1-5.6h-2.6l-.5 1.2c.7.2 1.5.4 2.1.7l-1.5 4.2c-.8-.5-1.7-.9-2.6-1.2a13.2 13.2 0 0 1-7.8 6.3l2-5.5c1.9-1.2 2.4-1.9 3.8-5.7h-1.7l1.4-3.8h8.1c.5-2.2 1.8-6.4 3.2-10.7l-6 6.3h1.1l.6-1.7h2.4l-1.8 4.9h-7.1l1.3-3.6 1.9-1.8-.8-1.7c-.2-.5-.3-.7-.1-1 .2-.4.4-.7.6-1l3.1-3.7 3.9-.1zm4 14v-1.2h-1.3l1.3-3.6 1.5-1.6-.9-1.7c-1.2 3.3-2 6.1-2.6 8.1h2zm4-4.4l.5-1.4-1.5 1.4h1zM91.6 15.2L90 16.6h6.4l-1.2 3.2h-3.9l.2 1.6H86l-.1-1.6c-1.4.9-2.9 1.7-4.4 2.4h12.8L91 32h-8.2l-4.5 12.2h-5.2L81 22.5l-.9.2 1.7-4.5a12 12 0 0 0 4.7-2.9h5.1zM88.5 26l.3-.8h-3.5l-.3.8h3.5zm-1.2 3.3l.3-.8h-3.5l-.3.8h3.5zm10.6 3.5l-2.6 7.1h2.4l2.9-8h-8.2l3.6-9.7h13.2l-6.6 18.1c-.7 2.3-2.7 3.9-5.1 4h-4.7l.8-2.2c-.6.4-1.3.6-1.9.5H80.6l3.6-9.9 13.7.1zm-6.2 3.5l.3-.9h-4.2l-.3.9h4.2zm-1.2 3.2l.3-.9h-4.2l-.3.9h4.2zM107 15.2l-1.5 1.5h6.4l-1.2 3.2h-4l.5 1.5h-5.9l-.1-1.6c-1.9 1-3.9 1.8-6 2.4l1.5-4.1c1.9-.5 3.5-1.5 4.9-2.9h5.4zM102.8 26l.3-.8h-3.8l-.3.8h3.8zm-1.2 3.3l.3-.8h-3.8l-.3.8h3.8zM107.5 35.8h12l.6-1.5H110l5.5-15.3h1.9l-1-3.6h5.9l.4 3.6h2.4l-.7-3.6h5.5l.9 3.6h2.3l3.6-3.6h6.5L139 19h2.4l-4 11.1c-1.1 3-2.6 4.2-5.5 4.2h-6.4l-.6 1.5h12l-1.7 4.6h-12l-1.6 4.4h-5.5l1.6-4.4h-12l1.8-4.6zm16-11.2l.7-1.8h-5l-.6 1.8h4.9zm-2 5.4l.7-1.9h-5l-.6 1.9h4.9zm12.4-5.4l.6-1.8h-4.9l-.6 1.8h4.9zM132 30l.7-1.9h-4.9l-.7 1.9h4.9zM155.7 15.5l-9.4 21.6h-4.9l6.5-21.6h7.8zm-9.3 23.1l-2.2 6H138l2.2-6h6.2zM200.6 13.1l-47.7 17.4 6 16.4 47.7-17.4-6-16.4zM169 27.3l.7 2-1.2.5-.7-2 1.2-.5zm-1.6.6l.7 2-1.2.5-.7-2 1.2-.5zm-7.7 5.8l4.5-1.7-1.2-1.8 2.2-.8 1.2 1.7 3.4-1.3.7 2-2.9 1.1 1.8 2.8-2.4.9-1.8-2.8-4.9 1.9-.6-2zm9.2 6.7c-1.1.4-2.3.8-3.5.9-.7.1-1.4 0-2.1-.3-.6-.3-1.1-.9-1.3-1.5-.2-.8-.2-1.6 0-2.4l2.3-.8c-.2.6-.2 1.4 0 2 .1.4.4.7.8.8.8 0 1.7-.2 2.4-.5 1.4-.5 2.8-1.1 4.1-1.9l.8 2.2c-1.1.5-2.3 1-3.5 1.5zm11.5-5.1c-.5.8-1.5 1.4-3.4 2.1l-2.1.8-.5-1.5 2.1-.8c.9-.3 1.7-.8 2.4-1.4.3-.5.4-1.2.2-1.8-.2-.5-.5-.9-1-1.1-.2-.1-.5-.1-.8-.1 0 0-1 .3-1.1.4l-3.9 1.5-.5-1.5 3.9-1.5.2-.1c1.7-.6 2.4-.6 3.3-.2.8.4 1.4 1.1 1.7 2 .3 1 .1 2.2-.5 3.2zm6.6-1.5l-4.5-2.8-.8-.4c-.4-.2-.6-.5-.7-.9-.1-.4-.1-.8 0-1.1l2-5.8 2.8-1-2.1 6c-.1.3-.2.7-.1 1 .1.3.2.3.8.7l5.7 3.3-3.1 1zm11.6-5.6c-.5.8-1.1 1.5-1.9 2-.7.4-1.5.8-2.2 1l-3 1.1-.8-2.2 2.8-1c2-.7 2.6-1.2 3-2.3.3-.9.2-1.8-.1-2.7-.3-.7-.6-1.4-.9-2-.2-.4-.6-.6-1.1-.4-.2.1-.4.3-.5.7-.3 1-.5 2-.7 3-.5 2.5-.7 2.7-2.2 3.3l-.7.3-2.8-7.8 2.3-.8 1.5 4.2c1-4.2 1.2-4.8 2.5-5.2 1-.4 2.1-.2 2.9.6.8 1 1.5 2.1 1.9 3.4.8 1.8.8 3.4 0 4.8zM31.5 20.7h.7l.3-1.2h-1.3zM34.2 39.2H36V37h-1.8z"/><path class="st0" d="M64.3 25.6c-2-10.4-11.1-18.2-22.1-18.2-12.4.1-22.5 10.1-22.5 22.6 0 12.4 10.1 22.5 22.5 22.5 11 0 20.1-7.8 22.1-18.2l7.5-4.3-7.5-4.4zM32.1 41.2v-6.3h6.1v4.2c.1 1.7-.4 2.1-2.2 2.1h-3.9zm9.2-.4c0 2-.5 2.5-2.9 2.5h-1.5v-2.1h2v-7.1h-7.5v9.2h-2.3V32h4.4l.4-1.3h2.7l-.4 1.3h5.1v8.8zm.5-18.2h-1v6.8h-2.3v-6.8h-.8c0 2.9-.1 3.6-.3 4.5-.3 1.2-1.4 2.2-2.7 2.4v-1.2c-.9-.6-1-.6-1.7-1.2v2.3h-2.1v-1.8c-.5.7-1.2 1.3-2 1.7v-2.6c1-.6 1.3-.9 1.7-1.7h-1.8v-2h2.1v-.6h-2v-1.8h.9l-.3-1.1h-.6v-1.9H31v-1h2v1h2v1.9h-.6l-.3 1.1h.9v1.8h-2v.6h2v1.9h-2v.1c.6.4 1.3.7 1.9 1v.9c.5-.5.5-.8.6-4.1v-5.5c2-.1 4-.3 5.9-.8v2.4c-1.2.1-1.3.2-3.7.3v1.4h4.1v2zm1.4-5.1H48v-.8h2.5v.8h4.8v1.8H43.2v-1.8zm2.9 4.8c-.6 1.3-1.4 1.9-3.2 2.4v-2.2c1.3-.3 2.2-1.4 2.2-2.7h2c0 1.2.7 2.2 1.9 2.6v2.2h.5v-2.2c1.1-.4 1.8-1.4 1.9-2.6h1.9c.3 1.7.9 2.4 2.2 2.7v2.2c-1.4-.2-2.6-1.1-3.1-2.3-.4 1-1.3 1.8-2.4 2.2h.6v.4h5v2h-5v2.5h-2.5V27H43v-2h5.1v-.5h.4a4 4 0 0 1-2.4-2.2zm-.2 19.5c0 .4.1.8.1 1.2h-2.4c-.1-1.3-.2-2.6-.2-3.9 0-2.7.2-5.5.6-8.2h2.4c-.4 2.3-.7 4.7-.7 7 0 .3.1 3.2.2 3.9zm9.8-5.8h-2.8v1.8c0 2-.3 2.9-1.2 3.9a5.43 5.43 0 0 1-4.2 1.6h-.6V41c.7 0 1.3-.1 1.9-.2.7-.2 1.2-.8 1.4-1.5.1-.5.2-1.1.2-1.6v-1.5l-3.2.1V34h3.2l-.1-2.9H53v2.8h2.8V36z"/></svg>