<?xml version="1.0" encoding="utf-8"?>
<!-- Generator: Adobe Illustrator 23.0.1, SVG Export Plug-In . SVG Version: 6.00 Build 0)  -->
<svg version="1.1" id="レイヤー_1" xmlns="http://www.w3.org/2000/svg" xmlns:xlink="http://www.w3.org/1999/xlink" x="0px"
	 y="0px" viewBox="0 0 320 40" style="enable-background:new 0 0 320 40;" xml:space="preserve">
<style type="text/css">
	.st0{fill:#FFFFFF;}
	.st1{fill:#83C426;}
</style>
<rect class="st0" width="320" height="40"/>
<title>アートボード 1</title>
<g>
	<g>
		<polygon class="st1" points="228.3,26.8 226.4,26.8 225.8,28.6 227.7,28.6 		"/>
		<polygon class="st1" points="31.6,15.7 31.3,16.5 34.7,16.5 34.9,15.7 		"/>
		<polygon class="st1" points="22.2,15.7 19.1,15.7 18.9,16.5 22,16.5 		"/>
		<path class="st1" d="M194.4,14.2c-0.4,1.8-0.7,3.5-0.9,5.3c1.2-1.7,2.3-3.5,3.2-5.3H194.4z"/>
		<polygon class="st1" points="48.6,15.2 53,15.2 53.5,13.6 49.1,13.6 		"/>
		<polygon class="st1" points="21.2,18.6 18.1,18.6 17.8,19.4 20.9,19.4 		"/>
		<polygon class="st1" points="61.2,18.3 56.7,18.3 56.1,20 60.5,20 		"/>
		<polygon class="st1" points="46.9,20 51.2,20 51.9,18.3 47.4,18.3 		"/>
		<polygon class="st1" points="177.5,25.8 180.2,25.5 181.1,23.1 178.5,23.1 		"/>
		<polygon class="st1" points="181.9,13.5 184.5,13.5 185.3,11.7 182.6,11.7 		"/>
		<polygon class="st1" points="179.8,19.5 182.4,19.5 183.2,17.2 180.6,17.2 		"/>
		<polygon class="st1" points="62.8,13.6 58.4,13.6 57.8,15.2 62.2,15.2 		"/>
		<polygon class="st1" points="20.1,28.4 23.8,28.4 24.1,27.6 20.4,27.6 		"/>
		<polygon class="st1" points="270.5,20.2 258.6,20.2 258.2,21.3 270.1,21.3 		"/>
		<path class="st1" d="M300,19.6h1.7v-1.1h-1.2l1.2-3.2l1.3-1.4l-0.8-1.5C301.2,15.3,300.4,17.8,300,19.6z"/>
		<polygon class="st1" points="30.3,19.4 33.6,19.4 33.9,18.6 30.6,18.6 		"/>
		<polygon class="st1" points="305.2,15.7 305.6,14.3 304.3,15.7 		"/>
		<polygon class="st1" points="21.1,25.6 24.8,25.6 25.1,24.8 21.4,24.8 		"/>
		<polygon class="st1" points="271.6,17.3 259.6,17.3 259.3,18.4 271.1,18.4 		"/>
		<polygon class="st1" points="272.6,14.6 260.6,14.6 260.3,15.6 272.2,15.6 		"/>
		<path class="st1" d="M273.1,10.8c-1.1,0.6-2.1,1.2-3.3,1.6h3.5L273.1,10.8z"/>
		<polygon class="st1" points="261.6,25.1 265.3,25.1 265.6,24.2 262,24.2 		"/>
		<path class="st1" d="M0,0v40h320V0H0z M229.8,7.2h9.4l-1.2,3.4h-9.4L229.8,7.2z M227.3,11.5h10.9l-1.2,3.3h-10.9L227.3,11.5z
			 M33.6,6.9h4.8l-1.3,1.3h5.7l-1.1,2.9h-3.5l0.4,1.3h-5.2L33.2,11c-1.7,0.9-3.5,1.6-5.3,2.1l1.3-3.7C30.9,9,32.4,8.1,33.6,6.9z
			 M8.4,32.6l7-19.2l-0.8,0.2l1.4-4c1.6-0.5,3-1.4,4.2-2.6h4.5l-1.3,1.2h5.7l-1,2.8h-3.5l0.2,1.4h-4.9L19.9,11
			c-1.2,0.8-2.6,1.5-3.9,2.1h11.3l-3.1,8.6h-7.3l-4,10.8H8.4z M30,32.8h-4.1l0.7-2c-0.5,0.4-1.2,0.5-1.8,0.4h-9.9l3.2-8.8h12.2
			L28,28.8h2.1l2.7-7h-7.4l3.1-8.6h11.7l-5.9,16C33.9,31.3,32.1,32.7,30,32.8z M65,25.1l-1.5,4.1H52.8l-1.4,3.9h-4.9l1.4-3.9H37.3
			l1.5-4.1h10.6l0.5-1.3h-9l4.9-13.6h1.7l-0.9-3.2h5.2l0.4,3.2h2.1l-0.6-3.2h4.9l0.7,3.2h2l3.2-3.2h5.8l-3.6,3.2h2.1l-3.5,9.8
			c-1,2.7-2.4,3.7-4.9,3.7h-5.7l-0.5,1.3H65z M73.1,32.9h-5.5l2-5.3h5.5L73.1,32.9z M75,26.3h-4.3l5.8-19.1h6.9L75,26.3z
			 M158.9,28.8c-1.2,3.1-2.4,3.8-6.3,3.9h-5l1.6-4.4h4.7l1-2.7h-10.5l1.6-4.3h10.5l1-2.6h-9.1l1.5-4.3h9.1l0.9-2.5l-2.7,0.1
			l-4.3,0.1h-2.7l1.6-4.4c2.4,0.1,3.5,0.1,5,0.1c6.3,0.2,12.6-0.2,18.8-1.1L174,11c-3.5,0.3-5.4,0.4-8.9,0.6l-1,2.7h9.3l-1.5,4.3
			h-9.3l-1,2.6h10l-1.6,4.3h-10L158.9,28.8z M195,33.1c-2-1-3.5-2.6-4.5-4.5c-2.3,2-5.1,3.5-8,4.3l1.8-5c1.9-0.7,3.5-1.7,5.1-3
			c-0.3-3.3-0.1-5.5,1-10.7h-0.9l1.1-2.8h-0.8L182,32.6h-4.3l1.1-2.9c-3.1,0.4-4.8,0.6-9,1.1l1.6-4.3l1.8-0.2l5.3-14.6h-1.6l1.5-4.1
			h13.9l-0.8,2.2h11.6c-3.2,7.3-5.2,10.7-8.9,15.1c0.6,1.2,1.5,2.1,2.6,2.8L195,33.1z M215.3,29.8c-1.9,1.2-3.9,2-6,2.5
			c-1.8,0.4-3.5,0.5-5.3,0.4h-6.6l1.8-4.9h6.2c4.3,0,6.1-0.4,8.3-2.2c1.7-1.4,2.9-3.3,3.5-5.3c0.5-1.5,1-3,1.2-4.6
			c0.1-1-0.4-1.6-1.2-1.6c-0.7,0.1-1.3,0.4-1.8,1c-0.7,0.6-1.4,1.2-5.4,5.3c-4.5,4.5-5,4.8-8.3,4.9h-1.5L206.6,8h5l-3.4,9.3
			c7.6-7.5,8.9-8.4,11.7-8.4c2.5,0,3.8,1.1,4.1,3.2c0.2,1.8-0.4,5.1-1.5,8C220.9,24.4,218.6,27.5,215.3,29.8z M231.4,28.9
			c-1,2.8-2,3.5-4.9,3.5h-6l3.2-8.8l9.7-0.1L231.4,28.9z M233.4,22.8h-9.2l1.2-3.2h9.2L233.4,22.8z M225.7,18.7l1.2-3.2h9.2
			l-1.2,3.2H225.7z M240.6,32.8h-4.8l5.1-14.1h-5l1.5-4.3h5l2.7-7.5h4.9l-2.7,7.5h5.1l-1.5,4.3h-5.1L240.6,32.8z M274.6,28.4h-5.8
			l-1.6,4.3h-4.7l1.6-4.3h-4.3c-2.6,3-6.9,4.8-12.1,4.9l1.4-3.8c2.6-0.1,3.7-0.3,5.1-1.1h-5.4l1.2-3.4h6.7l0.4-0.9h-4.5l4.3-11.9
			h2.7V11c-1.7,0.8-3.4,1.4-5.1,1.9l1.2-3.4c1.6-0.4,3.2-1.2,4.4-2.3h4.4c-0.4,0.4-0.7,0.8-1.1,1.2h5.6l-1,2.8h-3.9l0.3,1.2h3.6
			l1.1-3c1.6-0.3,3-1,4.1-2.2h4.5c-0.4,0.4-0.9,0.8-1.3,1.2h5.6l-1,2.8h-3.4l0.4,1.2l-3.2,8.9c-0.8,2.2-2,2.9-4.4,2.9l-0.4,1h5.8
			L274.6,28.4z M277.9,32.6l2.5-6.8c-1,1.2-2.2,2.3-3.5,3.1l2.4-6.6c1.9-1.7,3.5-3.7,4.5-5.9h-2.4l1.5-4.3h2.4l1.9-5h4.2l-1.8,5h1.8
			l-1.5,4.3H288l-0.5,1.3c0.4,0.4,0.8,0.8,1.2,1.3l-2.1,5.8c-0.2-0.8-0.4-1.6-0.8-2.3L282,32.6C282,32.6,277.9,32.6,277.9,32.6z
			 M308.3,13.9l-1.6,4.6H305l0.2,1.1h1.1l-1.2,3.4h-5.9c-0.1,0.8,0,1.6,0.1,2.3c0.5-0.5,1-1.2,1.4-1.8h4.2c-1,1.7-2.3,3.2-3.8,4.4
			c0.5,0.4,1.2,0.8,1.9,1.1l-1.6,4.3c-2.1-0.4-3.8-1.3-4.4-2.5c-2.2,1.2-4.6,1.9-7.1,2.1l1.4-3.9c1.4-0.2,2.8-0.5,4.2-1.2
			c-0.3-1.7-0.3-3.4,0.1-5H293l-0.4,1.1c0.6,0.2,1.3,0.4,1.9,0.6l-1.3,3.7c-0.7-0.4-1.5-0.8-2.3-1.1c-1.4,2.7-4,4.7-6.9,5.6l1.8-4.9
			c1.7-1.1,2.1-1.7,3.4-5.1h-1.5l1.2-3.4h7.2c0.4-2,1.6-5.7,2.8-9.4l-5.3,5.6h1l0.5-1.5h2.1l-1.6,4.3h-6.3l1.2-3.2l1.7-1.6l-0.7-1.5
			c-0.2-0.4-0.3-0.6-0.1-0.9c0.2-0.4,0.4-0.6,0.5-0.9l2.7-3.3h3.2l-3.4,3.5l0.3,0.4l2.1-2.4h2.5l0.5-1.6h4l-1.1,3l2.7-3h3.1
			l-3.1,3.5l0.2,0.4l1.9-1.9h3l-4.7,4.8L308.3,13.9L308.3,13.9z"/>
	</g>
	<path class="st0" d="M138.8,4.1L87,16l4.5,19.9L143.3,24L138.8,4.1z M103.5,15.7l0.5,2.2l-1.4,0.4l-0.5-2.2L103.5,15.7z
		 M101.8,16.1l0.5,2.2l-1.4,0.4l-0.5-2.2L101.8,16.1z M92.6,21.2l5.1-1.2l-1.1-2l2.6-0.6l1.1,2l3.8-0.9l0.5,2.3l-3.3,0.8l1.6,3.3
		l-2.7,0.6l-1.5-3.2l-5.6,1.3L92.6,21.2z M101.7,29.8c-1.2,0.4-2.6,0.5-3.8,0.5c-0.8,0.1-1.5-0.2-2.2-0.6c-0.6-0.4-1.1-1.1-1.2-1.8
		c-0.2-0.9,0-1.9,0.4-2.7l2.6-0.6c-0.4,0.6-0.4,1.4-0.3,2.1c0.1,0.4,0.4,0.9,0.8,1.1c0.4,0.2,1.2,0.1,2.7-0.3
		c1.6-0.4,3.2-0.8,4.7-1.4l0.5,2.5C104.4,29,103.1,29.4,101.7,29.8z M114,25.9c-0.6,0.7-1.6,1.2-3.5,1.6l-2,0.4l-0.4-1.4l2-0.4
		c0.9-0.2,1.7-0.5,2.4-1.1c0.7-0.9,0.5-2.1-0.4-2.7c0,0-0.1,0-0.1-0.1c-0.2-0.1-0.4-0.2-0.7-0.2c0,0-1,0.2-1.1,0.2l-3.7,0.9
		l-0.4-1.5l3.8-0.9h0.2c1.6-0.4,2.3-0.4,3.1,0.2c0.7,0.5,1.2,1.2,1.3,2C115,24,114.7,25.1,114,25.9z M122.2,25.1l-4.5-3.6l-0.8-0.6
		c-0.4-0.3-0.6-0.6-0.7-1.1c-0.1-0.4-0.1-0.9,0.1-1.2l3-6l3.1-0.7l-3.1,6.1c-0.2,0.4-0.3,0.7-0.2,1.1c0.1,0.3,0.2,0.4,0.8,0.9
		l5.7,4.3L122.2,25.1z M136.1,20.6c-0.6,0.8-1.4,1.4-2.3,1.9c-0.8,0.4-1.7,0.7-2.6,0.8l-3.4,0.8l-0.6-2.5l3.2-0.7
		c2.2-0.5,3-0.9,3.5-2c0.4-0.9,0.5-2,0.2-2.9c-0.2-0.8-0.4-1.5-0.7-2.3c-0.2-0.4-0.6-0.7-1.1-0.6c-0.2,0.1-0.4,0.3-0.6,0.6
		c-0.4,1-0.9,2-1.2,3.1c-0.9,2.7-1.1,2.8-2.7,3.3l-0.8,0.2l-2-8.8l2.6-0.6l1.2,4.8c1.6-4.4,2-5,3.5-5.3c1.2-0.4,2.3,0.1,3,1
		c0.8,1.2,1.3,2.5,1.6,3.9C137.4,17.4,137.1,19.1,136.1,20.6z"/>
</g>
</svg>
