<svg id="レイヤー_1" data-name="レイヤー 1" xmlns="http://www.w3.org/2000/svg" viewBox="0 0 20 20"><defs><style>.cls-1{fill:#83c426;}.cls-2{fill:#fff;}</style></defs><title>アートボード 1</title><circle class="cls-1" cx="10" cy="10" r="10"/><path class="cls-2" d="M8,12.92a9.33,9.33,0,0,1,.1-2,2.09,2.09,0,0,1,1-1.23l2.78-1.3a1.18,1.18,0,0,0,.75-1.22c0-1.3-.52-1.47-2.61-1.47s-2.65,0-2.65,1.91v.26H4.74C4.74,4,5.3,3.09,10,3.09c3.52,0,5.29.59,5.29,3.54,0,1.55-.21,3-1.79,3.63l-2.1.9c-.76.33-.76.61-.76,1.76Zm0,4V14.17h2.74v2.74Z"/></svg>