<svg data-name="7" xmlns="http://www.w3.org/2000/svg" viewBox="0 0 180 30"><defs><style>.cls-1{fill:#fff}</style></defs><title>7</title><path class="cls-1" d="M19.08 12.31L20 9.93h-3.24l1-2.81h6.14l-1 2.67a10.79 10.79 0 0 0-.38 6.61c.5 1.38 1.29 2.12 3.35 3.15l-1.19 3.35c-3.8-1.28-5.84-4-5.59-7.64a16.76 16.76 0 0 1-11 7.64l1.18-3.23a12 12 0 0 0 8.21-7.36zM30.76 12.45l1.12-3.06h5l1-2.65H41l-1 2.65h6.7l-2.99 8.41c-1.21 3.28-3.26 4.7-6.86 4.75h-2.2l1.06-2.91h2a2.46 2.46 0 0 0 2.72-1.84l2-5.35h-3.58c-1.55 3.62-2.54 5-4.8 7a14.67 14.67 0 0 1-7.38 3.26l1.24-3.41c3.32-.45 6.51-3.27 7.77-6.84zM47.8 14.15l.61-1.69h3.22l.77-.9h2.15l-.69.9h3.76L57 14.15h-4.8l-.81.87a4.32 4.32 0 0 1 1.86-.54 1 1 0 0 1 1.06.78 2.51 2.51 0 0 1-.31 1.26l2.82-.29-.7 1.92-2.79.21-.55 1.52h-2l.43-1.18c-1.47.35-2 .64-2.2 1.2s.06.69 1.26.69 2.84-.06 4.43-.17l-.7 1.91h-1.76c-3.24 0-4.08-.05-4.69-.29a1.33 1.33 0 0 1-.86-1.35 1.93 1.93 0 0 1 .12-.78 4.31 4.31 0 0 1 2.26-2.11 11.15 11.15 0 0 1 2.79-.91 1.64 1.64 0 0 0 .16-.7c0-.17-.18-.26-.4-.26a4.79 4.79 0 0 0-2.75 1.43h-2.34A45.85 45.85 0 0 0 50 14.15zM64.82 10.74a23.3 23.3 0 0 1-2.42 3.58h-2.93a15 15 0 0 0 2.62-3.58zm-2.77-3h6.43l.39-1.09h3.19l-.4 1.09h6.22L77 10.17h-4.35l-1.07 2.95a2.43 2.43 0 0 1-2.74 2h-.92l-.39.34h6.57l-.64 1.77a20.42 20.42 0 0 1-4.14 2.7 24.32 24.32 0 0 0 4.16.39l-1 2.65a22 22 0 0 1-7.08-1.17 28.87 28.87 0 0 1-9 1.33l1-2.7a29.21 29.21 0 0 0 5.66-.58 3.93 3.93 0 0 1-1-1.26 14.62 14.62 0 0 1-3.95 1l1-2.68A11 11 0 0 0 64 15h-2a8 8 0 0 0 3.74-4.82h-4.58zm7.76 2.43h-1.16c-1.2 3.06-1.57 3.63-3.12 4.73h1.38l.77-2.11h1.17zm-5 7.27a4.09 4.09 0 0 0 1.54 1.4 11.1 11.1 0 0 0 2.65-1.4zm10.47-6.7a16.08 16.08 0 0 1 .13 3.58h-2.76v-3.58zM78.13 14.7l7.94-.07-.65 1.76L83 17.78h.67c.65 0 .76.25.47 1l-.5 1.37h.68c.36 0 .62 0 1.25-.05l-.77 2.13h-1.34a5.52 5.52 0 0 1-2.06-.2c-.4-.18-.45-.45-.18-1.18l.17-.44c0-.1.09-.2.11-.25.2-.57.08-.76-.48-.76a6.51 6.51 0 0 0-2.64 1c-1 .52-1.39.72-2.32 1.26s-.84.49-1.36.77l.88-2.42c.29-.16.48-.27.54-.29l1.23-.65c2.28-1.21 3.74-2 4.93-2.58H77.42zm8.59-2.89L86 13.73l-6.7.07.7-1.9zM90.45 12.25l9.55-.05-.69 1.91-1.13.34a10.09 10.09 0 0 0-4 1.84 4.7 4.7 0 0 0-1.57 2 1.18 1.18 0 0 0 .15 1.31A3.93 3.93 0 0 0 95 20c.36 0 1 0 1.73-.08L95.94 22h-1.75a5.83 5.83 0 0 1-3.44-.72c-.77-.54-.94-1.57-.47-2.85a6.67 6.67 0 0 1 1.59-2.39 9.73 9.73 0 0 1 2.57-1.83l-4.75.08zM102.19 16.85l2.24-6.14h5.11l.37-1h-6.36l.91-2.51h15.61l-.91 2.51h-6.57l-.37 1h5.31l-2.23 6.14h1.6l-.9 2.59h-1.6l-.46 1.24a3.5 3.5 0 0 1-3.74 2.56h-2.7l.9-2.49h2.6l.47-1.31h-7.36l-1.38 3.8h-2.87l1.39-3.8h-1.77l1-2.59zm6.24-3.08l.34-1h-2.25l-.35 1zm-1.13 3.08l.37-1h-2.25l-.37 1zm6.24-3.08l.35-1h-2.43l-.35 1zm-1.12 3.08l.36-1h-2.43l-.36 1zM126.59 9.52l-.74 2h-6.92l.74-2zm-3.08 7.7l-1.22 3.35c-.63 1.79-1.26 2.24-3.12 2.24h-3.81l2-5.59zm-2.23-10.39h6l-.77 2.11h-6zm-1.92 5.26h5.87l-.73 2h-5.87zm4.9 2.67l-.73 2h-5.87l.73-2zM120 20.37l.41-1.13h-1.27l-.42 1.13zm9.29-8.94L131 6.64h3.08l-1.74 4.79h3.26l-1 2.7h-3.25l-3.25 8.93H125l3.25-8.93h-3.17l1-2.7zM133.19 18.16h4.29l.29-.56h-2.88l2.75-7.54h1.67v-.85a15.3 15.3 0 0 1-3.31 1.17l.79-2.16a7 7 0 0 0 2.81-1.48h2.82a5.7 5.7 0 0 1-.7.74h3.55l-.65 1.79h-2.41l.16.79h2.32l.7-1.93A4.3 4.3 0 0 0 148 6.74h2.88a8.34 8.34 0 0 1-.86.74h3.56l-.65 1.79h-2.1l.3.79-2 5.6a2.56 2.56 0 0 1-2.84 1.87l-.23.63h3.68l-.76 2.09h-3.68l-1 2.75h-3l1-2.75h-2.76c-1.65 1.91-4.37 3-7.7 3.11l.87-2.41a5.6 5.6 0 0 0 3.21-.7h-3.44zm14.19-6l.22-.61H140l-.22.61zm-.65 1.8l.24-.67h-7.56l-.25.67zm-.68 1.85l.26-.7h-7.57l-.25.7zm-3 2.38l.2-.56h-2.3l-.3.56zm5.05-8.1l-.1-1a17.16 17.16 0 0 1-2.09 1zM151.86 12.85h5.28l.45-1.25h2.14l-.44 1.21h2.8l-.68 1.87h-2.8l-1.61 4.5a4.39 4.39 0 0 1-1.51 2.19 4.51 4.51 0 0 1-3.25.93h-2.11l.7-1.93h1.93c1.4 0 1.75-.19 2.22-1.22a4 4 0 0 1-1.68.38 1.48 1.48 0 0 1-1.55-2.13 3.42 3.42 0 0 1 1.41-1.65 3.5 3.5 0 0 1 2.09-.62 4.21 4.21 0 0 1 1 .14l.23-.63-5.28.06zm1.84 4.49c-.11.32.14.55.63.55a1.15 1.15 0 0 0 1.13-.63c.11-.31-.16-.52-.65-.52a1.28 1.28 0 0 0-1.11.6zM163.81 13.81l.67-1.83h7.39l-.65 1.76-3.42 1.69a8 8 0 0 1 1.08-.08c1.76 0 2.65 1.32 2 3a6.12 6.12 0 0 1-2.24 2.86 7.19 7.19 0 0 1-4.12 1.1c-2.54 0-3.61-.77-3.07-2.24a3.6 3.6 0 0 1 3.27-2.17c1.36 0 2.12.85 1.72 1.93 0 .12-.13.32-.22.51a2.55 2.55 0 0 0 1.64-.61 3.15 3.15 0 0 0 .84-1.23c.38-1.05-.15-1.61-1.5-1.61a10.46 10.46 0 0 0-3.85.79 13 13 0 0 0-2.6 1.32l.76-2.09.49-.25 1.43-.69c.34-.15.86-.4 1.43-.68 1.54-.76 1.72-.84 3.23-1.51zm.6 6.78c.14-.64 0-.9-.44-.9a.51.51 0 0 0-.52.32c-.13.34.18.59.71.59h.25z"/></svg>