<svg data-name="2" xmlns="http://www.w3.org/2000/svg" viewBox="0 0 180 30"><defs><style>.cls-2{fill:#fff}</style></defs><title>2</title><path fill="#ff7d55" d="M0 0h180v30H0z"/><path class="cls-2" d="M8.4 16.9L8 18a32.6 32.6 0 0 1-1.5 3.4H4.7a20.2 20.2 0 0 0 1.6-3.6l.3-1zm5.9-10l-2.7 3 .3.5L14 8h2.7l-4 4.2h2v1.6l-.2.8a1.8 1.8 0 0 1-2 1.5h-.6L9.3 23H6.8l2.5-6.8H7l.8-2.4h.9l1-1-.7-2a.9.9 0 0 1 0-.7 2.8 2.8 0 0 1 .4-.8l2.3-2.5zm-1.8 7v-1.5l-1.3 1.4zm1.4 3l-1.7 4.5h-1.7l1.6-4.5zM20 8.4l.6-1.8h2.7l-.6 1.8h3.4l-.8 2.3h-3.5l-.4 1.2h3.2l-.8 2.3H15l.8-2.3h3l.4-1.2H16l.8-2.3zm2.8 7l-2 5.4a2.5 2.5 0 0 1-2.8 1.8h-5.7l2.7-7.3zM18.5 20l.8-2.2h-2.6L16 20zM23.6 19.8a12.4 12.4 0 0 0 5.1-2h-4.1l.9-2.3h6.3l.2-.7h-5.4l3-8h14l-2 5.5c-.8 2-1.4 2.4-3.4 2.5H35l-.3.7H41l-.9 2.4h-4a5.9 5.9 0 0 0 3.7 2l-1 2.9a7.3 7.3 0 0 1-5.4-3.3L32 23H29l1.3-3.5a15.5 15.5 0 0 1-7.8 3.2zm10.2-10l.3-.7h-2.4l-.2.7zm-1 2.8l.3-.9h-2.3l-.3.9zm6.6-2.8l.3-.7h-2.6l-.2.7zm-1 2.8l.3-.9h-2.5l-.3.9zM44 14l.5-1.6h3.2l.8-.9h2.2l-.7.9h3.7l-.6 1.7h-4.8l-.8.9a4.4 4.4 0 0 1 1.9-.5 1 1 0 0 1 1 .7 2.8 2.8 0 0 1-.3 1.3l2.9-.3-.7 1.9-2.8.2-.5 1.5h-2l.4-1.1c-1.5.3-2 .6-2.2 1.2s0 .6 1.2.6l4.5-.1-.7 1.9h-1.8c-3.2 0-4 0-4.7-.3a1.4 1.4 0 0 1-.8-1.4 1.9 1.9 0 0 1 0-.8 4.3 4.3 0 0 1 2.3-2 11.7 11.7 0 0 1 2.8-1 1.4 1.4 0 0 0 .2-.6.3.3 0 0 0-.4-.3 4.8 4.8 0 0 0-2.8 1.4h-2.4a43.7 43.7 0 0 0 3.5-3.2zM57.8 15.3l.4-1.2h-2.8l.8-2.1h1l.3-1.7h-.6l.8-2.2h2.6l.5-1.2h2.8l-.4 1.2h2.2l-.8 2.2h-.4L63 12h.9l-.8 2.1H61l-.4 1.2h2.3l-.8 2.3h-2.3v.2l1.9 1.1-.6 1.6c1.3-.5 1.9-1.2 2.5-3h-.8l3.7-10.3h7.7L71 15.8c-.4 1.2-.7 1.4-1.8 1.6l-1 3.2h.4c.4 0 .5-.1 1.3-.7l-1 2.7a2.8 2.8 0 0 1-1.7.6H66c-1 0-1.4-.4-1-1.5l1.6-4.3H66a10.2 10.2 0 0 1-2.3 4.1 8.7 8.7 0 0 1-4 2l.6-1.5a10.8 10.8 0 0 0-1.7-1.4l-1 2.7H55l1.1-3a9.3 9.3 0 0 1-3.9 2.4l1.2-3.1a7.8 7.8 0 0 0 3-2h-2.2l.9-2.3zm2.9-3.3l1-1.7H60l-.3 1.7zm9.4-1.7l.4-.8H68l-.3.8zm-.9 2.5l.3-.8h-2.3l-.3.9zm-.9 2.6l.3-.9h-2.3l-.3.9zM71.6 19.1c.8-.5 1.1-1 1.9-3.1l2.9-7.9H85l.6-1.6h3l-.7 1.6h1V6.6h2.7V8h.4l-1 2.5h-4a19.8 19.8 0 0 0-1.1 5 21.8 21.8 0 0 0 2.2-4.1H91a29 29 0 0 1-4.4 7 3 3 0 0 0 1.2 1.4l-1.2 3.4a3.5 3.5 0 0 1-2.7-2.3 10.6 10.6 0 0 1-4.2 2l1.1-3 .4-.1L80 19l-.7 1.8a2.2 2.2 0 0 1-2.3 1.7h-1.4l.8-2.2-.6 1h-2.1a31.5 31.5 0 0 0 2.7-4.4h1.8l-1.6 3h.6l1.4-4h-2.3a21.4 21.4 0 0 1-2 4 7.7 7.7 0 0 1-4 3zm7.6-5.2l1-2.9H83l-.3.7H84l.3-1h-5.9l-1.1 3.2zm4 0l.2-.7H82l-.2.7zm-1 3.6l-.8 2.3a7.2 7.2 0 0 0 1.6-1.2 8 8 0 0 1 0-2.6h-1.9l-.2.8zM95.4 11.9a40 40 0 0 0-2.9 6.4l-.8 2.5-.5 1.3h-2l1.4-4.2a49.7 49.7 0 0 1 2.7-6zm1.4 5.2a5.4 5.4 0 0 0-1.1 1.7c-.2.4-.1.7.2 1a2.2 2.2 0 0 0 1.1.1h2.7l-.7 1.9h-2.8a3.4 3.4 0 0 1-2.5-.6 1.9 1.9 0 0 1-.2-2 8.5 8.5 0 0 1 1.3-2.1zm5.4-4.6l-.7 2h-6l.7-2zM106.4 9.2a33.2 33.2 0 0 1 6.6 3.1l3.7-5h3.6l-2.8 3.6-1.4 1.9-.8 1 3 2.1-1.3 3.7c-1-.9-1.1-.9-2.2-1.7l-1.6-1.2c-3 3.5-3.8 4.2-5.7 5.1-1.7.8-3 1-6.3 1l1.2-3.2c4.8-.1 5.5-.5 8.5-4.4a26.6 26.6 0 0 0-5.7-2.9zM136 13.3l-1 3.1h-14.8l1.1-3zM144.7 7.2l-2.9 7.8c-1.6 4.6-4.5 7.4-8.3 7.8l1.2-3.4c2-.5 2.9-1.5 4-4.1l3-8.1zm2 0h3L145.5 19c2.6-.1 3-.6 4.4-4l1.5-4.3h3l-1.7 4.7c-1 3-2 4.3-3.4 5.4a8.6 8.6 0 0 1-5.4 1.4h-2.7zM155.3 12.8h5.3l.5-1.3h2l-.3 1.3h2.8l-.7 1.8H162l-1.7 4.6a4.5 4.5 0 0 1-4.8 3.1h-2l.6-2h2c1.4 0 1.7-.1 2.2-1.1a4 4 0 0 1-1.7.3 1.5 1.5 0 0 1-1.5-2.1 3.4 3.4 0 0 1 1.4-1.6 3.5 3.5 0 0 1 2-.7 3.8 3.8 0 0 1 1 .2l.3-.7-5.3.1zm1.9 4.5c-.2.3.1.5.6.5a1.1 1.1 0 0 0 1.1-.6c.1-.3-.1-.5-.6-.5a1.3 1.3 0 0 0-1.1.6zM167.3 13.8l.6-1.9h7.4l-.6 1.8-3.4 1.7a7 7 0 0 1 1-.1c1.8 0 2.7 1.3 2 3a6 6 0 0 1-2.2 2.9 7.1 7.1 0 0 1-4.1 1.1c-2.5 0-3.6-.8-3-2.3a3.6 3.6 0 0 1 3.2-2.1c1.4 0 2.1.8 1.7 2l-.2.4a2.5 2.5 0 0 0 1.6-.6 3.1 3.1 0 0 0 .9-1.2c.4-1-.2-1.6-1.5-1.6a10.3 10.3 0 0 0-3.9.8 13.8 13.8 0 0 0-2.6 1.2l.8-2a24 24 0 0 0 2-1l1.3-.7 3.3-1.5zm.6 6.7c.1-.6 0-.9-.5-.9a.5.5 0 0 0-.5.4c-.1.3.2.6.7.6h.2z"/></svg>