<svg data-name="3" xmlns="http://www.w3.org/2000/svg" viewBox="0 0 180 30"><defs><style>.cls-2{fill:#fff}</style></defs><title>3</title><path fill="#1da1f2" d="M0 0h180v30H0z"/><path class="cls-2" d="M24.4 17l-.4 1.2a37.4 37.4 0 0 1-1.5 3.4h-1.9a19.3 19.3 0 0 0 1.7-3.6l.3-1zm5.9-10l-2.7 3 .2.5L30 8.2h2.7l-4 4.2h2V14l-.2.8a1.8 1.8 0 0 1-2 1.5h-.7l-2.5 6.9h-2.5l2.5-6.9h-2.4l.8-2.3h.9l1-1.1-.8-2a.9.9 0 0 1 0-.7 2.4 2.4 0 0 1 .5-.7L27.6 7zm-1.8 7v-1.3L27 14zm1.3 3l-1.6 4.5h-1.7L28 17zM36 8.6l.7-1.8h2.7l-.7 1.8h3.5l-.9 2.3H38l-.4 1.2h3.2l-.9 2.2H31l.8-2.2h3l.4-1.2H32l.9-2.3zm2.9 6.9l-2 5.4a2.6 2.6 0 0 1-2.8 1.9h-5.7l2.6-7.3zm-4.5 4.7l.8-2.2h-2.5l-.8 2.2zM39.5 20a12.5 12.5 0 0 0 5.2-2h-4.1l.8-2.3h6.3l.3-.7h-5.4l3-8h14l-2 5.5c-.8 2-1.5 2.4-3.5 2.4h-3l-.3.8H57l-.9 2.3H52a5.9 5.9 0 0 0 3.8 2.1l-1 2.9a7.4 7.4 0 0 1-5.4-3.4L48 23.2h-3l1.3-3.5a15.7 15.7 0 0 1-7.8 3.2zm10.3-10l.3-.7h-2.4l-.2.7zm-1 2.8l.3-.8h-2.3l-.3.8zm6.6-2.8l.3-.7H53l-.2.7zm-1 2.8l.3-.8h-2.6l-.3.8zM59.9 14.3l.6-1.7h3.2l.8-.9h2.1l-.6.9h3.7l-.6 1.7h-4.8l-.8.9a4.3 4.3 0 0 1 1.8-.6 1 1 0 0 1 1.1.8 2.5 2.5 0 0 1-.3 1.3l2.8-.3-.7 1.9-2.8.2L65 20h-2l.4-1.2c-1.4.4-2 .7-2.2 1.2s0 .7 1.3.7l4.4-.2-.7 2h-1.7c-3.3 0-4.1-.1-4.7-.3a1.4 1.4 0 0 1-1-1.4 2.2 2.2 0 0 1 .2-.8 4.3 4.3 0 0 1 2.2-2 11.6 11.6 0 0 1 2.8-1 1.6 1.6 0 0 0 .2-.6.4.4 0 0 0-.4-.3 4.8 4.8 0 0 0-2.8 1.5h-2.3a43.9 43.9 0 0 0 3.4-3.3zM77.5 7.8a92 92 0 0 1-.7 7.3h-3.3a59.9 59.9 0 0 0 .7-7.3zm-.4 12c2.3 0 3.7-.6 4.8-1.7 1-1 1.4-1.9 2.6-4.8l2-5.5h3.1l-1.9 5.3c-2.4 7-5.8 9.8-11.9 9.7h-5.9l1.1-3zm5.8-12a46.7 46.7 0 0 1-.7 7.3H79a39.3 39.3 0 0 0 .6-7.3zM89 14.6l11.7-4.7c1.5-.6 2-1 2.4-2.2l.2-.5h3.3l-.3.7a6.2 6.2 0 0 1-3.7 3.9l-3.2 1.4-3.6 9.8h-3.3l3-8.1-7.7 3.2zM120.7 13.6l-1.1 3h-14.8l1.1-3zM129.6 7.1l-1.8 4.8a55.5 55.5 0 0 1 7.6 2.4l-1.3 3.3a53.8 53.8 0 0 0-7.4-2.5l-3 8h-3.2l5.8-16zM138.2 13h5.2l.5-1.3h2.1l-.4 1.3h2.8l-.7 1.8h-2.8l-1.7 4.6a4.3 4.3 0 0 1-1.5 2.2 4.5 4.5 0 0 1-3.2.9h-2.1l.6-2h2c1.4 0 1.8-.1 2.2-1.2a4 4 0 0 1-1.7.4 1.5 1.5 0 0 1-1.5-2.2 3.9 3.9 0 0 1 3.5-2.2 3.8 3.8 0 0 1 1 .1l.2-.6h-5.2zm1.8 4.5c-.1.3.1.5.6.5a1.2 1.2 0 0 0 1.2-.6c0-.3-.2-.5-.7-.5a1.3 1.3 0 0 0-1.1.6zM151.3 14l.7-1.8h7.4l-.7 1.7-3.4 1.7a8 8 0 0 1 1 0c1.8 0 2.7 1.3 2 3a6 6 0 0 1-2.2 2.8 7.2 7.2 0 0 1-4 1c-2.6 0-3.7-.7-3.2-2.1a3.6 3.6 0 0 1 3.3-2.2c1.4 0 2.1.8 1.7 2a5.6 5.6 0 0 1-.2.4 2.6 2.6 0 0 0 1.7-.6 3.2 3.2 0 0 0 .8-1.2c.4-1-.2-1.6-1.5-1.6a10.5 10.5 0 0 0-3.9.8 13.5 13.5 0 0 0-2.6 1.2l.8-2.1.5-.3 1.4-.6 1.5-.7 3.2-1.5zm.6 6.8c.1-.6 0-1-.4-1a.5.5 0 0 0-.6.4c0 .3.2.6.7.6h.3z"/></svg>