<svg xmlns="http://www.w3.org/2000/svg" viewBox="0 0 160 30"><style>.st0{fill:#fff}</style><title>3</title><path class="st0" d="M26.4 17c-.2.6-.3.8-.4 1.2-.4 1.2-.9 2.3-1.5 3.4h-1.9c.7-1.1 1.2-2.3 1.6-3.6.1-.2.2-.5.3-1h1.9zm5.9-10l-2.7 3 .2.5L32 8.2h2.7l-4 4.2h2V14l-.3.8c-.2 1-1 1.6-2 1.5h-.6l-2.5 6.9h-2.5l2.5-6.9h-2.4l.8-2.3h.9l1-1.1-.7-2c-.1-.2-.1-.4 0-.7.1-.3.3-.5.5-.7L29.6 7h2.7zm-1.8 7v-1.4L29.1 14h1.4zm1.3 3l-1.6 4.5h-1.8L30 17h1.8zM38 8.6l.7-1.8h2.7l-.7 1.8h3.5l-.8 2.3H40l-.4 1.2h3.2l-.8 2.2h-9l.8-2.2h3l.4-1.2h-3.3l.8-2.3H38zm2.8 6.9l-2 5.4c-.3 1.2-1.5 2-2.8 1.9h-5.7l2.6-7.3h7.9zm-4.4 4.7l.8-2.2h-2.5l-.8 2.2h2.5zM41.5 20c1.8-.2 3.6-.9 5.1-1.9h-4.1l.9-2.4h6.3l.3-.7h-5.4l2.9-8h14l-2 5.5c-.7 2-1.4 2.4-3.4 2.5H53l-.3.7H59l-.9 2.3H54c1 1.1 2.3 1.9 3.8 2.1l-1 2.9c-2.2-.2-4.2-1.4-5.4-3.3L50 23.2h-3l1.3-3.5c-2.3 1.8-5 2.9-7.8 3.2l1-2.9zm10.3-10l.2-.7h-2.3l-.2.7h2.3zm-1 2.8l.3-.8h-2.4l-.3.8h2.4zm6.6-2.8l.2-.7H55l-.1.7h2.5zm-1 2.8l.3-.8h-2.6l-.3.8h2.6zM61.9 14.3l.6-1.7h3.2l.8-.9h2.1l-.7.9h3.8l-.6 1.7h-4.8l-.8.9c.6-.3 1.2-.5 1.9-.5.5-.1 1 .3 1.1.8 0 .4-.1.9-.3 1.3l2.8-.3-.7 1.9-2.8.2-.6 1.4h-2l.4-1.2c-1.5.4-2 .6-2.2 1.2s.1.7 1.3.7 2.8-.1 4.4-.2l-.7 1.9h-1.8c-3.2 0-4.1 0-4.7-.3-.6-.2-.9-.8-.9-1.4 0-.3 0-.5.1-.8.5-.9 1.3-1.6 2.2-2 .9-.4 1.8-.7 2.8-.9.1-.2.2-.5.2-.7 0-.2-.2-.3-.4-.3-1 .2-2 .7-2.8 1.4h-2.3c1.2-1 2.3-2.1 3.4-3.2l-2 .1zM79.5 7.8c-.1 1.8-.4 5.4-.7 7.3h-3.3c.4-2.4.6-4.9.8-7.3h3.2zm-.4 12c2.3 0 3.8-.5 4.8-1.7.9-.9 1.4-1.9 2.5-4.8l2-5.4h3.2l-1.9 5.3c-2.4 6.9-5.9 9.7-11.9 9.6h-5.9l1.1-3h6.1zm5.7-12c0 2.4-.2 4.9-.6 7.3H81c.4-2.4.6-4.9.6-7.3h3.2zM91.1 14.6l11.6-4.7c1.6-.6 2-1 2.4-2.2l.2-.5h3.3l-.3.7c-.6 1.8-1.9 3.2-3.7 3.9l-3.3 1.4-3.5 9.8h-3.3l3-8.1-7.6 3.2 1.2-3.5zM122.7 13.6l-1.1 3.1h-14.7l1.1-3.1h14.7zM131.6 7.1l-1.8 4.8c2.6.6 5.1 1.4 7.5 2.4l-1.2 3.3c-2.4-1-4.9-1.8-7.5-2.4l-2.9 7.9h-3.3l5.8-16h3.4z"/></svg>