<svg id="レイヤー_1" data-name="レイヤー 1" xmlns="http://www.w3.org/2000/svg" viewBox="0 0 180 30"><defs><style>.cls-1{fill:#ff7d55;}.cls-2{fill:#fff;}</style></defs><title>アートボード 4</title><rect class="cls-1" width="180" height="30"/><path class="cls-2" d="M8.39,16.85c-.16.55-.25.81-.38,1.15a32.6,32.6,0,0,1-1.49,3.44H4.67a20.18,20.18,0,0,0,1.62-3.6c.08-.22.2-.56.34-1Zm5.9-10-2.67,3,.23.5L14,8h2.72l-4,4.24h2.05l0,1.6-.29.79a1.81,1.81,0,0,1-2,1.5h-.63L9.33,23H6.83l2.49-6.84H6.87l.85-2.33H8.6l1-1.1-.73-2a.86.86,0,0,1-.05-.66,2.82,2.82,0,0,1,.5-.74l2.29-2.49Zm-1.78,7V12.45L11.16,13.8Zm1.36,3.05-1.63,4.48H10.49l1.63-4.48Zm6.2-8.49.65-1.78h2.72l-.65,1.78h3.46l-.85,2.33H21.94l-.44,1.2h3.19l-.82,2.25H15l.82-2.25h3l.43-1.2H16l.84-2.33Zm2.85,6.92-2,5.45a2.55,2.55,0,0,1-2.78,1.86H12.39l2.66-7.31ZM18.48,20l.81-2.22H16.71L15.91,20Z"/><path class="cls-2" d="M23.56,19.78a12.45,12.45,0,0,0,5.14-1.91H24.6l.87-2.39h6.3l.26-.71H26.64l2.89-7.94h14l-2,5.46c-.72,2-1.36,2.45-3.37,2.48H35.07l-.25.71H41l-.87,2.39H36.05a5.86,5.86,0,0,0,3.78,2.07l-1,2.85a7.35,7.35,0,0,1-5.44-3.32L32.07,23H29l1.28-3.53a15.53,15.53,0,0,1-7.8,3.19Zm10.28-10,.25-.69H31.75l-.25.69Zm-1,2.79.3-.83H30.79l-.3.83Zm6.61-2.79.25-.69H37.13l-.24.69Zm-1,2.79.3-.83H36.17l-.3.83Z"/><path class="cls-2" d="M43.91,14.09l.62-1.69h3.21l.77-.9h2.15l-.69.9h3.77l-.62,1.69h-4.8L47.5,15a4.36,4.36,0,0,1,1.87-.54,1,1,0,0,1,1.06.78,2.81,2.81,0,0,1-.29,1.26L53,16.18l-.7,1.92-2.78.2-.56,1.53h-2l.42-1.18c-1.47.35-2,.64-2.2,1.2s.07.68,1.27.68,2.84-.06,4.42-.17l-.69,1.91c-.86,0-1.19,0-1.77,0-3.23,0-4.08,0-4.69-.29a1.35,1.35,0,0,1-.86-1.36,1.89,1.89,0,0,1,.13-.77,4.34,4.34,0,0,1,2.25-2.12A11.74,11.74,0,0,1,48,16.86a1.44,1.44,0,0,0,.16-.69.35.35,0,0,0-.39-.27A4.79,4.79,0,0,0,45,17.33H42.65a43.74,43.74,0,0,0,3.42-3.24Z"/><path class="cls-2" d="M57.82,15.3l.42-1.16H55.4L56.17,12h1.06l.25-1.71h-.62l.8-2.18h2.68l.44-1.21h2.83l-.44,1.21h2.27l-.8,2.18h-.46L63.08,12H64l-.77,2.12H60.94l-.42,1.16h2.31L62,17.62h-2.3l0,.14c1.17.69,1.33.78,1.9,1.16l-.59,1.62c1.28-.54,1.89-1.28,2.53-3.1H62.7L66.44,7.16h7.7L71,15.76c-.44,1.23-.7,1.48-1.76,1.68l-1.13,3.11h.45c.43,0,.53-.07,1.33-.64l-1,2.72a2.83,2.83,0,0,1-1.67.59H66.05c-1.13,0-1.4-.45-1-1.55l1.54-4.23H66a10.21,10.21,0,0,1-2.33,4.07,8.73,8.73,0,0,1-4,2L60.28,22a10.83,10.83,0,0,0-1.66-1.44l-1,2.7h-2.7L56,20.27a9.29,9.29,0,0,1-3.86,2.45l1.13-3.12a7.79,7.79,0,0,0,3.1-2H54.13L55,15.3ZM60.65,12l1-1.71H60L59.7,12Zm9.5-1.71.3-.83H68.13l-.3.83Zm-.93,2.56.32-.87H67.21l-.31.87Zm-.92,2.52.32-.87H66.3l-.32.87Z"/><path class="cls-2" d="M71.57,19.15c.83-.54,1.14-1,1.93-3.15l2.86-7.87H85l.58-1.62h2.93L87.9,8.13h1l0-1.57h2.73l-.1,1.57H92l-.91,2.5H87a19.83,19.83,0,0,0-1.15,5,21.81,21.81,0,0,0,2.28-4.13h2.75a29,29,0,0,1-4.4,7,3,3,0,0,0,1.27,1.38l-1.22,3.37a3.49,3.49,0,0,1-2.73-2.29A10.64,10.64,0,0,1,79.6,23l1.1-3,.38-.11L80,19.13l-.65,1.78A2.19,2.19,0,0,1,77,22.57h-1.4l.8-2.2-.63,1H73.65A31.48,31.48,0,0,0,76.36,17H78.2c-.5,1-.91,1.8-1.64,3.06h.63l1.45-4H76.29a21.36,21.36,0,0,1-2.05,3.89,7.71,7.71,0,0,1-4,3Zm7.63-5.28L80.26,11h2.6l-.25.66h1.28l.31-1H78.33l-1.18,3.24Zm4.09,0,.15-.66H82l-.24.66Zm-1.07,3.59-.84,2.3A7.16,7.16,0,0,0,83,18.57,7.91,7.91,0,0,1,83,16.05H81.11l-.26.72Z"/><path class="cls-2" d="M95.41,11.89a39.91,39.91,0,0,0-2.9,6.44c-.11.28-.11.28-.85,2.49l-.43,1.24h-2c.76-2.38,1-3,1.38-4.14a49.67,49.67,0,0,1,2.73-6Zm1.41,5.19a5.43,5.43,0,0,0-1.16,1.67c-.17.48-.1.8.23,1a2.17,2.17,0,0,0,1.13.17c1.11,0,1.8,0,2.66-.06L99,21.79c-.68,0-2.21.05-2.8.05a3.38,3.38,0,0,1-2.45-.59,1.86,1.86,0,0,1-.29-2,8.49,8.49,0,0,1,1.34-2.19Zm5.39-4.56-.71,1.94h-6l.71-1.94Z"/><path class="cls-2" d="M106.36,9.18A33.24,33.24,0,0,1,113,12.34c2.65-3.52,2.72-3.62,3.72-5.13h3.59c-1.77,2.38-2.17,2.94-2.78,3.71l-1.43,1.87c-.27.35-.57.71-.84,1.07,1.88,1.2,2.18,1.38,3.12,2.05L117,19.65c-1.07-.91-1.11-.95-2.17-1.74l-1.64-1.24c-3,3.56-3.75,4.26-5.65,5.14-1.71.74-3,.94-6.3,1l1.18-3.24c4.83-.08,5.48-.42,8.46-4.34a26.55,26.55,0,0,0-5.68-2.9Z"/><path class="cls-2" d="M136.05,13.35l-1.11,3.06H120.19l1.12-3.06Z"/><path class="cls-2" d="M144.65,7.18,141.8,15c-1.59,4.57-4.55,7.36-8.32,7.83l1.24-3.42c1.94-.52,2.85-1.49,3.92-4.12l3-8.12Zm2,0h3.12L145.43,19c2.55-.12,3-.57,4.35-4.09l1.53-4.21h3l-1.69,4.65c-1.1,3-2,4.37-3.43,5.42a8.64,8.64,0,0,1-5.37,1.47h-2.72Z"/><path class="cls-2" d="M155.32,12.8l5.28,0,.46-1.25h2.13l-.44,1.22,2.81,0-.68,1.87-2.81,0-1.65,4.55a4.51,4.51,0,0,1-4.77,3.12h-2.11l.7-1.93h1.93c1.41,0,1.75-.19,2.22-1.23a3.94,3.94,0,0,1-1.67.39,1.48,1.48,0,0,1-1.55-2.14,3.42,3.42,0,0,1,1.4-1.64,3.53,3.53,0,0,1,2.1-.62,3.78,3.78,0,0,1,1,.14l.23-.64-5.29.06Zm1.85,4.48c-.12.33.13.55.63.55a1.13,1.13,0,0,0,1.12-.62c.12-.31-.15-.53-.64-.53A1.27,1.27,0,0,0,157.17,17.28Z"/><path class="cls-2" d="M167.27,13.76l.67-1.84h7.39l-.64,1.76-3.42,1.7a7,7,0,0,1,1.07-.09c1.76,0,2.65,1.32,2,3.05a6,6,0,0,1-2.24,2.85A7.12,7.12,0,0,1,168,22.3c-2.54,0-3.6-.77-3.07-2.25a3.62,3.62,0,0,1,3.28-2.17c1.35,0,2.11.85,1.72,1.93-.05.12-.13.33-.23.52a2.55,2.55,0,0,0,1.64-.61,3.1,3.1,0,0,0,.85-1.24c.38-1-.15-1.6-1.51-1.6a10.26,10.26,0,0,0-3.85.79,13.77,13.77,0,0,0-2.62,1.23l.76-2.08c.13-.08.46-.24.49-.26.48-.21,1-.45,1.44-.68l1.42-.68c1.55-.76,1.72-.84,3.24-1.52Zm.61,6.77c.13-.63,0-.9-.44-.9a.51.51,0,0,0-.53.33c-.12.33.18.59.71.59h.16Z"/></svg>