<svg id="レイヤー_1" data-name="レイヤー 1" xmlns="http://www.w3.org/2000/svg" viewBox="0 0 180 30"><defs><style>.cls-1{fill:#1da1f2;}.cls-2{fill:#fff;}</style></defs><title>アートボード 3</title><rect class="cls-1" width="180" height="30"/><path class="cls-2" d="M24.37,17c-.17.56-.26.81-.38,1.16a37.37,37.37,0,0,1-1.49,3.44H20.64A19.31,19.31,0,0,0,22.26,18c.08-.21.21-.55.34-1ZM30.26,7,27.6,10l.23.51L30,8.2h2.72l-4,4.23h2.05l0,1.61-.28.79a1.8,1.8,0,0,1-2,1.49H27.8l-2.49,6.85h-2.5l2.49-6.85H22.85L23.69,14h.89l1-1.1-.74-2a.86.86,0,0,1,0-.66,2.4,2.4,0,0,1,.5-.74L27.6,7Zm-1.78,7V12.65L27.13,14Zm1.36,3-1.63,4.49H26.46L28.1,17ZM36,8.56l.65-1.78h2.72l-.65,1.78h3.46l-.85,2.33H37.92l-.44,1.2h3.19l-.82,2.25H31l.82-2.25h2.95l.44-1.2H31.92l.85-2.33Zm2.85,6.92-2,5.45a2.56,2.56,0,0,1-2.78,1.86H28.36L31,15.48Zm-4.43,4.71.8-2.21H32.69l-.81,2.21Z"/><path class="cls-2" d="M39.54,20a12.5,12.5,0,0,0,5.14-1.91H40.57l.87-2.39h6.31L48,15H42.62L45.51,7h14l-2,5.46c-.73,2-1.36,2.45-3.38,2.48H51.05l-.26.71H57l-.87,2.39H52a5.89,5.89,0,0,0,3.79,2.07l-1,2.85a7.38,7.38,0,0,1-5.44-3.32L48,23.22H45l1.29-3.53a15.74,15.74,0,0,1-7.81,3.19ZM49.82,10l.25-.69H47.73l-.25.69Zm-1,2.79.3-.83H46.76l-.3.83ZM55.42,10l.25-.69H53.11l-.25.69Zm-1,2.79.3-.83H52.15l-.31.83Z"/><path class="cls-2" d="M59.89,14.29l.61-1.69h3.22l.77-.9h2.14l-.68.9h3.76l-.61,1.69H64.29l-.81.88a4.32,4.32,0,0,1,1.86-.54.94.94,0,0,1,1.06.78,2.54,2.54,0,0,1-.29,1.26l2.82-.29-.7,1.92-2.79.2L64.89,20h-2l.43-1.17c-1.47.35-2,.63-2.2,1.2s.06.68,1.26.68,2.84-.06,4.43-.17l-.7,1.91c-.86,0-1.18,0-1.76,0-3.24,0-4.08-.05-4.69-.29a1.36,1.36,0,0,1-.87-1.36,2.17,2.17,0,0,1,.13-.78A4.31,4.31,0,0,1,61.14,18a11.58,11.58,0,0,1,2.79-.91,1.58,1.58,0,0,0,.16-.69.36.36,0,0,0-.4-.27,4.79,4.79,0,0,0-2.75,1.43H58.62a43.88,43.88,0,0,0,3.43-3.24Z"/><path class="cls-2" d="M77.48,7.84c-.08,1.8-.42,5.37-.71,7.31H73.49a59.85,59.85,0,0,0,.75-7.31Zm-.39,11.92c2.35,0,3.75-.52,4.84-1.67.9-.94,1.39-1.89,2.54-4.81l2-5.44h3.17l-1.93,5.3c-2.41,6.91-5.86,9.72-11.91,9.63H69.94l1.1-3ZM82.85,7.84a46.7,46.7,0,0,1-.63,7.31H79a39.29,39.29,0,0,0,.59-7.31Z"/><path class="cls-2" d="M89.06,14.56,100.69,9.9c1.55-.63,2-1,2.39-2.2l.18-.49h3.29l-.26.7a6.21,6.21,0,0,1-3.68,3.89l-3.26,1.39L95.78,23H92.45l3-8.12-7.63,3.23Z"/><path class="cls-2" d="M120.68,13.55l-1.12,3.06H104.82l1.11-3.06Z"/><path class="cls-2" d="M129.59,7.1l-1.75,4.81a55.5,55.5,0,0,1,7.52,2.36l-1.22,3.33a53.76,53.76,0,0,0-7.48-2.45l-2.87,7.91h-3.3l5.81-16Z"/><path class="cls-2" d="M138.15,13l5.28,0,.45-1.25H146l-.44,1.21,2.8,0-.68,1.87-2.8,0-1.66,4.55a4.33,4.33,0,0,1-1.51,2.18,4.51,4.51,0,0,1-3.25.94h-2.11l.7-1.93H139c1.4,0,1.75-.2,2.22-1.23a4,4,0,0,1-1.68.39A1.49,1.49,0,0,1,138,17.54a3.88,3.88,0,0,1,3.5-2.27,3.83,3.83,0,0,1,1,.15l.23-.64-5.28.06ZM140,17.48c-.11.32.14.55.63.55a1.16,1.16,0,0,0,1.13-.62c.11-.31-.16-.53-.65-.53A1.28,1.28,0,0,0,140,17.48Z"/><path class="cls-2" d="M151.3,14l.67-1.83h7.39l-.65,1.76-3.42,1.69a8,8,0,0,1,1.08-.08c1.76,0,2.65,1.32,2,3a6.09,6.09,0,0,1-2.24,2.85,7.19,7.19,0,0,1-4.12,1.1c-2.54,0-3.61-.76-3.07-2.24a3.62,3.62,0,0,1,3.27-2.17c1.36,0,2.12.85,1.72,1.93a5.59,5.59,0,0,1-.22.52,2.6,2.6,0,0,0,1.64-.61,3.18,3.18,0,0,0,.84-1.24c.38-1-.15-1.61-1.5-1.61a10.46,10.46,0,0,0-3.85.79,13.5,13.5,0,0,0-2.62,1.24L149,17l.49-.25c.47-.21.95-.45,1.43-.68l1.43-.69c1.54-.75,1.72-.84,3.23-1.51Zm.6,6.78c.14-.63,0-.9-.44-.9a.5.5,0,0,0-.52.33c-.13.33.18.58.71.58h.25Z"/></svg>