<svg id="4" xmlns="http://www.w3.org/2000/svg" viewBox="0 0 160 30"><style>.st0{fill:#fff}</style><title>4</title><path class="st0" d="M8.9 16.9c-.2.5-.3.8-.4 1.1-.4 1.2-.9 2.3-1.5 3.4H5.2c.7-1.1 1.2-2.4 1.6-3.6.1-.2.2-.6.3-1l1.8.1zm5.9-10l-2.7 3 .2.5L14.5 8h2.7l-4 4.2h2.1v1.6l-.3.8c-.2 1-1 1.6-2 1.5h-.6L9.8 23H7.3l2.5-6.8H7.4l.9-2.3h.9l1-1.1-.7-2c-.1-.2-.1-.4 0-.7.1-.3.3-.5.5-.7l2.3-2.5h2.5zM13 13.8v-1.4l-1.4 1.4H13zm1.4 3.1l-1.6 4.5H11l1.6-4.5h1.8zm6.2-8.5l.6-1.8h2.7l-.6 1.8h3.5l-.8 2.3h-3.5l-.5 1.2h3.2l-.8 2.2h-8.9l.8-2.2h3l.4-1.2h-3.3l.9-2.3h3.3zm2.8 6.9l-2 5.4c-.3 1.2-1.5 2-2.8 1.9h-5.7l2.7-7.3h7.8zM19 20l.8-2.2h-2.6l-.8 2.2H19zM24.1 19.8c1.8-.2 3.6-.9 5.1-1.9h-4.1l.9-2.4h6.3l.2-.7h-5.4l2.9-8h14l-2 5.5c-.7 2-1.4 2.4-3.4 2.5h-3.1l-.3.7h6.2l-.9 2.4h-4.1c1 1.1 2.3 1.9 3.8 2.1l-1 2.9c-2.2-.2-4.2-1.4-5.4-3.3L32.6 23h-3l1.3-3.5c-2.3 1.8-5 2.9-7.9 3.2l1.1-2.9zm10.2-10l.2-.7h-2.3l-.2.7h2.3zm-1 2.8l.3-.8h-2.4l-.2.8h2.3zM40 9.8l.2-.7h-2.6l-.2.7H40zm-1 2.8l.3-.8h-2.6l-.3.8H39zM44.4 14.1l.6-1.7h3.2l.8-.9h2.2l-.7.9h3.8l-.6 1.7h-4.8l-.9.9c.6-.3 1.2-.5 1.9-.5.5-.1 1 .3 1.1.8 0 .4-.1.9-.3 1.3l2.8-.3-.7 1.9-2.8.1-.5 1.5h-2l.4-1.2c-1.5.4-2 .6-2.2 1.2s.1.7 1.3.7 2.8-.1 4.4-.2l-.7 1.9h-1.8c-3.2 0-4.1 0-4.7-.3-.6-.2-.9-.8-.9-1.4 0-.3 0-.5.1-.8.5-1 1.3-1.7 2.3-2.1.9-.4 1.8-.7 2.8-.9.1-.2.2-.5.2-.7 0-.2-.2-.3-.4-.3-1 .2-2 .7-2.8 1.4h-2.4c1.2-1 2.3-2.1 3.4-3.2l-2.1.2zM58.3 15.3l.4-1.2h-2.8l.8-2.1h1.1l.3-1.7h-.6l.8-2.2H61l.4-1.2h2.8l-.4 1.2h2.3l-.8 2.2h-.5L63.6 12h.9l-.8 2.1h-2.3l-.4 1.2h2.3l-.8 2.3h-2.3v.1c1.2.7 1.3.8 1.9 1.2l-.6 1.6c1.3-.5 1.9-1.3 2.5-3.1h-.8l3.7-10.3h7.7l-3.1 8.6c-.4 1.2-.7 1.5-1.8 1.7l-1.1 3.1h.4c.4 0 .5-.1 1.3-.6l-1 2.7c-.5.4-1.1.6-1.7.6h-1.2c-1.1 0-1.4-.5-1-1.5l1.5-4.2h-.6c-.4 1.5-1.2 2.9-2.3 4.1-1.1 1-2.5 1.7-4 2l.6-1.5c-.5-.5-1.1-1-1.7-1.4l-1 2.7h-2.7l1.1-3c-1.1 1.1-2.4 2-3.9 2.5l1.1-3.1a7.9 7.9 0 0 0 3.1-2h-2.2l.8-2.3 3.1-.2zm2.9-3.3l1-1.7h-1.7l-.3 1.7h1zm9.5-1.7l.3-.8h-2.3l-.3.8h2.3zm-1 2.6l.3-.9h-2.3l-.3.9h2.3zm-.9 2.5l.3-.9h-2.3l-.3.9h2.3zM72.1 19.1c.8-.5 1.1-1 1.9-3.1l2.9-7.9h8.6l.6-1.6H89l-.6 1.6h1V6.6h2.7L92 8.1h.4l-.9 2.5h-4c-.6 1.6-1 3.3-1.2 5 .9-1.3 1.7-2.7 2.3-4.1h2.8c-1.1 2.5-2.6 4.9-4.4 7 .3.6.7 1.1 1.3 1.4L87 23.2c-1.3-.2-2.3-1.1-2.7-2.3-1.2 1-2.7 1.7-4.2 2l1.1-3 .4-.1-1.1-.8-.7 1.8c-.3 1.1-1.3 1.8-2.4 1.7H76l.8-2.2-.6 1h-2.1c1-1.4 1.9-2.8 2.7-4.4h1.8c-.5 1-.9 1.8-1.6 3.1h.6l1.4-4h-2.4c-.5 1.4-1.2 2.7-2 3.9-1 1.4-2.4 2.5-4 3l1.5-3.8zm7.6-5.2l1.1-2.9h2.6l-.2.7h1.3l.3-1h-5.9l-1.2 3.2h2zm4.1 0l.2-.7h-1.4l-.2.7h1.4zm-1.1 3.6l-.8 2.3c.6-.3 1.2-.7 1.7-1.2-.2-.8-.2-1.7-.1-2.5h-1.8l-.3.7 1.3.7zM95.9 11.9c-1.2 2.1-2.1 4.2-2.9 6.4l-.8 2.5-.4 1.2h-2c.8-2.4 1-3 1.4-4.1.8-2.1 1.7-4.1 2.7-6h2zm1.4 5.2c-.5.5-.9 1-1.2 1.7-.2.5-.1.8.2 1 .4.2.7.2 1.1.2 1.1 0 1.8 0 2.7-.1l-.7 1.9h-2.8c-1.3 0-2-.2-2.4-.6-.5-.5-.6-1.3-.3-2 .3-.8.8-1.5 1.3-2.2l2.1.1zm5.4-4.6l-.7 1.9h-6l.7-1.9h6zM106.8 9.2c2.3.8 4.6 1.9 6.7 3.2 2.7-3.5 2.7-3.6 3.7-5.1h3.6c-1.8 2.4-2.2 2.9-2.8 3.7l-1.4 1.9-.8 1.1c1.9 1.2 2.2 1.4 3.1 2.1l-1.4 3.7c-.7-.6-1.4-1.2-2.2-1.7l-1.6-1.2c-3 3.6-3.8 4.3-5.7 5.1-1.7.7-3 .9-6.3 1l1.2-3.2c4.8-.1 5.5-.4 8.4-4.3-1.8-1.2-3.7-2.2-5.7-2.9l1.2-3.4zM136.6 13.4l-1.1 3.1h-14.8l1.1-3.1h14.8zM145.1 7.2l-2.8 7.8c-1.6 4.6-4.6 7.4-8.3 7.8l1.2-3.4c1.9-.5 2.9-1.5 3.9-4.1l3-8.1h3zm2 0h3.1L145.9 19c2.5-.1 3-.6 4.4-4.1l1.5-4.2h3l-1.7 4.7c-1.1 3-1.9 4.4-3.4 5.4a8.7 8.7 0 0 1-5.4 1.5h-2.7l5.5-15.1z"/></svg>